<svg width="12" height="12" viewBox="0 0 12 12" fill="none" xmlns="http://www.w3.org/2000/svg">
<path d="M11.5266 5.55098C11.5266 8.4284 9.19403 10.761 6.31661 10.761C3.43919 10.761 1.10658 8.4284 1.10658 5.55098C1.10658 2.67356 3.43919 0.340953 6.31661 0.340953C9.19403 0.340953 11.5266 2.67356 11.5266 5.55098ZM9.06595 4.86514C9.44605 4.48504 9.44605 3.86878 9.06595 3.48868C8.68585 3.10858 8.06959 3.10858 7.68949 3.48868L5.62957 5.5486L4.94373 4.86275C4.56363 4.48266 3.94737 4.48266 3.56727 4.86275C3.18717 5.24285 3.18717 5.85911 3.56727 6.23921L4.94134 7.61329C5.32144 7.99339 5.9377 7.99339 6.3178 7.61329L9.06595 4.86514Z" fill="#083C2F" stroke="#083C2F" stroke-width="0.572531"/>
</svg>
