<svg width="40" height="40" viewBox="0 0 40 40" fill="none" xmlns="http://www.w3.org/2000/svg">
<rect width="40" height="40" rx="20" fill="#39BCA9"/>
<path d="M16.2178 21.2866H21.3606V22.5723H16.2178V21.2866ZM16.2178 18.0723H23.9321V19.358H16.2178V18.0723ZM16.2178 24.5008H19.4321V25.7865H16.2178V24.5008Z" fill="white"/>
<path d="M25.8571 12.9286H23.9286V12.2857C23.9286 11.9447 23.7931 11.6177 23.552 11.3766C23.3109 11.1355 22.9838 11 22.6429 11H17.5C17.159 11 16.832 11.1355 16.5909 11.3766C16.3497 11.6177 16.2143 11.9447 16.2143 12.2857V12.9286H14.2857C13.9447 12.9286 13.6177 13.064 13.3766 13.3051C13.1355 13.5463 13 13.8733 13 14.2143V27.7143C13 28.0553 13.1355 28.3823 13.3766 28.6234C13.6177 28.8645 13.9447 29 14.2857 29H25.8571C26.1981 29 26.5252 28.8645 26.7663 28.6234C27.0074 28.3823 27.1429 28.0553 27.1429 27.7143V14.2143C27.1429 13.8733 27.0074 13.5463 26.7663 13.3051C26.5252 13.064 26.1981 12.9286 25.8571 12.9286ZM17.5 12.2857H22.6429V14.8571H17.5V12.2857ZM25.8571 27.7143H14.2857V14.2143H16.2143V16.1429H23.9286V14.2143H25.8571V27.7143Z" fill="white"/>
</svg>
