<svg width="40" height="40" viewBox="0 0 40 40" fill="none" xmlns="http://www.w3.org/2000/svg">
<rect width="40" height="40" rx="20" fill="#39BCA9"/>
<path d="M29 13.8421V15.7368H26.1579V18.5789H24.2632V15.7368H21.4211V13.8421H24.2632V11H26.1579V13.8421H29ZM26.1579 27.1053H12.8947V13.8421H18.5789V11.9474H12.8947C11.8526 11.9474 11 12.8 11 13.8421V27.1053C11 28.1474 11.8526 29 12.8947 29H26.1579C27.2 29 28.0526 28.1474 28.0526 27.1053V21.4211H26.1579V27.1053ZM22.3684 21.4211V25.2105H24.2632V21.4211H22.3684ZM18.5789 25.2105H20.4737V17.6316H18.5789V25.2105ZM16.6842 25.2105V19.5263H14.7895V25.2105H16.6842Z" fill="white"/>
</svg>
