<svg width="40" height="40" viewBox="0 0 40 40" fill="none" xmlns="http://www.w3.org/2000/svg">
<rect width="40" height="40" rx="20" fill="#39BCA9"/>
<path d="M11.8184 21.5684H15.0908C15.1217 21.5684 15.1406 21.5733 15.1504 21.5762C15.1533 21.5856 15.1592 21.6049 15.1592 21.6367V28.1816C15.1592 28.2127 15.1532 28.2315 15.1504 28.2412C15.1407 28.2441 15.122 28.25 15.0908 28.25H11.8184C11.7863 28.25 11.7672 28.2441 11.7578 28.2412C11.755 28.2314 11.75 28.2124 11.75 28.1816V21.6367C11.75 21.6052 11.755 21.5857 11.7578 21.5762C11.7673 21.5733 11.7866 21.5684 11.8184 21.5684ZM18.3633 11.75H21.6367C21.6668 11.75 21.6854 11.755 21.6953 11.7578C21.6982 11.7672 21.7041 11.7862 21.7041 11.8184V28.1816C21.7041 28.2128 21.6982 28.2315 21.6953 28.2412C21.6855 28.244 21.6671 28.25 21.6367 28.25H18.3633C18.3319 28.25 18.3132 28.2441 18.3037 28.2412C18.3009 28.2315 18.2959 28.2125 18.2959 28.1816V11.8184C18.2959 11.7865 18.3008 11.7673 18.3037 11.7578C18.3133 11.755 18.3322 11.75 18.3633 11.75ZM24.9092 18.2959H28.1816C28.2125 18.2959 28.2315 18.3009 28.2412 18.3037C28.2441 18.3132 28.25 18.3319 28.25 18.3633V28.1816C28.25 28.2127 28.2441 28.2315 28.2412 28.2412C28.2315 28.2441 28.2127 28.25 28.1816 28.25H24.9092C24.877 28.25 24.858 28.2441 24.8486 28.2412C24.8458 28.2314 24.8408 28.2124 24.8408 28.1816V18.3633C24.8409 18.3322 24.8458 18.3133 24.8486 18.3037C24.858 18.3008 24.8772 18.2959 24.9092 18.2959Z" stroke="white" stroke-width="1.5"/>
</svg>
