<svg width="40" height="40" viewBox="0 0 40 40" fill="none" xmlns="http://www.w3.org/2000/svg">
<rect width="40" height="40" rx="20" fill="#39BCA9"/>
<path d="M20 11C15.0374 11 11 15.0374 11 20V23.7287C11 24.6503 11.8073 25.4 12.8 25.4H13.7C13.9387 25.4 14.1676 25.3052 14.3364 25.1364C14.5052 24.9676 14.6 24.7387 14.6 24.5V19.8713C14.6 19.6326 14.5052 19.4037 14.3364 19.2349C14.1676 19.0661 13.9387 18.9713 13.7 18.9713H12.8828C13.3832 15.4883 16.3802 12.8 20 12.8C23.6198 12.8 26.6168 15.4883 27.1172 18.9713H26.3C26.0613 18.9713 25.8324 19.0661 25.6636 19.2349C25.4948 19.4037 25.4 19.6326 25.4 19.8713V25.4C25.4 26.3927 24.5927 27.2 23.6 27.2H21.8V26.3H18.2V29H23.6C25.5854 29 27.2 27.3854 27.2 25.4C28.1927 25.4 29 24.6503 29 23.7287V20C29 15.0374 24.9626 11 20 11Z" fill="white"/>
</svg>
