<svg width="60" height="61" viewBox="0 0 60 61" fill="none" xmlns="http://www.w3.org/2000/svg">
<g clip-path="url(#clip0_447_12334)">
<path d="M54.8823 42.1981C54.0312 41.7306 52.9625 42.0415 52.4953 42.8923C52.0279 43.7432 52.3386 44.812 53.1895 45.2793C55.2834 46.4296 56.4844 47.7049 56.4844 48.7781C56.4844 50.0907 54.6246 52.125 49.4047 53.8984C44.2479 55.6506 37.3564 56.6154 30 56.6154C22.6436 56.6154 15.7521 55.6506 10.5953 53.8984C5.37539 52.1252 3.51562 50.0907 3.51562 48.7781C3.51562 47.7049 4.71656 46.4296 6.81047 45.2792C7.66137 44.8118 7.97215 43.7431 7.50469 42.8922C7.03723 42.0414 5.96883 41.7305 5.1177 42.198C2.78309 43.4806 0 45.6633 0 48.7781C0 51.1656 1.64203 54.5697 9.4643 57.2273C14.9759 59.0998 22.2689 60.1311 30 60.1311C37.7311 60.1311 45.0241 59.0998 50.5357 57.2273C58.358 54.5697 60 51.1656 60 48.7781C60 45.6633 57.2169 43.4806 54.8823 42.1981Z" fill="#39BCA9"/>
<path d="M16.7295 51.3573C20.2979 52.3653 25.0111 52.9205 30.0008 52.9205C34.9905 52.9205 39.7037 52.3654 43.272 51.3573C47.6376 50.1241 49.8512 48.3389 49.8512 46.0516C49.8512 43.7642 47.6376 41.9792 43.272 40.7461C42.3029 40.4723 41.2489 40.2322 40.1284 40.0273C39.5198 41.0788 38.8822 42.161 38.2155 43.2744C39.4558 43.4605 40.6203 43.6886 41.6778 43.958C44.8906 44.7764 46.0644 45.6976 46.3057 46.0517C46.0643 46.406 44.8907 47.3272 41.6779 48.1454C38.637 48.9199 34.7246 49.3617 30.6039 49.4012C30.4044 49.4159 30.2033 49.4243 30.0008 49.4243C29.7982 49.4243 29.5972 49.4159 29.3975 49.4012C25.2768 49.3617 21.3644 48.92 18.3235 48.1454C15.1107 47.3272 13.9371 46.4059 13.6958 46.0517C13.9371 45.6976 15.1108 44.7764 18.3236 43.958C19.3811 43.6887 20.5456 43.4605 21.7861 43.2744C21.1194 42.1611 20.4818 41.0786 19.8732 40.0273C18.7527 40.2323 17.6986 40.4723 16.7295 40.7461C12.3639 41.9792 10.1504 43.7643 10.1504 46.0516C10.1504 48.3389 12.3639 50.124 16.7295 51.3573Z" fill="#39BCA9"/>
<path d="M30.0008 45.9083C31.5656 45.9083 32.987 45.1109 33.8033 43.7754C39.5232 34.4171 46.3414 22.0836 46.3414 16.4714C46.3414 7.46117 39.0111 0.130859 30.0008 0.130859C20.9905 0.130859 13.6602 7.46117 13.6602 16.4714C13.6602 22.0836 20.4785 34.4171 26.1983 43.7754C27.0146 45.1109 28.4361 45.9083 30.0008 45.9083ZM23.4328 15.3494C23.4328 11.728 26.3792 8.78164 30.0008 8.78164C33.6223 8.78164 36.5688 11.728 36.5688 15.3494C36.5688 18.971 33.6223 21.9173 30.0008 21.9173C26.3792 21.9173 23.4328 18.9711 23.4328 15.3494Z" fill="#39BCA9"/>
</g>
<defs>
<clipPath id="clip0_447_12334">
<rect width="60" height="60" fill="white" transform="translate(0 0.130859)"/>
</clipPath>
</defs>
</svg>
