<svg width="60" height="60" viewBox="0 0 60 60" fill="none" xmlns="http://www.w3.org/2000/svg">
<path d="M1.875 54.375H58.125V58.125H1.875V54.375Z" fill="#39BCA9"/>
<path d="M10.3125 22.5C9.56658 22.5 8.85121 22.7963 8.32376 23.3238C7.79632 23.8512 7.5 24.5666 7.5 25.3125V50.625H18.75V25.3125C18.75 24.5666 18.4537 23.8512 17.9262 23.3238C17.3988 22.7963 16.6834 22.5 15.9375 22.5H10.3125Z" fill="#39BCA9"/>
<path d="M27.1875 37.5C26.4416 37.5 25.7262 37.7963 25.1988 38.3238C24.6713 38.8512 24.375 39.5666 24.375 40.3125V50.625H35.625V40.3125C35.625 39.5666 35.3287 38.8512 34.8012 38.3238C34.2738 37.7963 33.5584 37.5 32.8125 37.5H27.1875Z" fill="#39BCA9"/>
<path d="M44.0625 43.125C43.3166 43.125 42.6012 43.4213 42.0738 43.9488C41.5463 44.4762 41.25 45.1916 41.25 45.9375V50.625H52.5V45.9375C52.5 45.1916 52.2037 44.4762 51.6762 43.9488C51.1488 43.4213 50.4334 43.125 49.6875 43.125H44.0625Z" fill="#39BCA9"/>
<path d="M24.9376 26.4C25.5608 28.474 26.6939 30.3587 28.2334 31.8818C29.7729 33.4049 31.6696 34.5178 33.7501 35.1188C34.9715 35.4562 36.233 35.6265 37.5001 35.625C40.981 35.625 44.3194 34.2422 46.7809 31.7808C49.2423 29.3194 50.6251 25.981 50.6251 22.5C50.6251 22.0027 50.4275 21.5258 50.0759 21.1742C49.7243 20.8226 49.2474 20.625 48.7501 20.625H42.1876C41.4417 20.625 40.7263 20.3287 40.1988 19.8013C39.6714 19.2738 39.3751 18.5584 39.3751 17.8125V11.25C39.3751 10.7527 39.1775 10.2758 38.8259 9.9242C38.4743 9.57257 37.9974 9.37503 37.5001 9.37503C35.5424 9.37116 33.6087 9.80526 31.8406 10.6455C30.0724 11.4858 28.5146 12.711 27.2813 14.2313C25.9304 15.916 25.0108 17.9049 24.6024 20.0254C24.194 22.1459 24.309 24.334 24.9376 26.4Z" fill="#39BCA9"/>
<path d="M45 16.875H56.25C56.7473 16.875 57.2242 16.6775 57.5758 16.3258C57.9275 15.9742 58.125 15.4973 58.125 15C58.125 11.519 56.7422 8.18064 54.2808 5.71922C51.8194 3.25781 48.481 1.875 45 1.875C44.5027 1.875 44.0258 2.07254 43.6742 2.42417C43.3225 2.77581 43.125 3.25272 43.125 3.75V14.0813C43.125 16.0312 43.9688 16.875 45 16.875Z" fill="#39BCA9"/>
<path d="M1.875 1.875H28.125V5.625H1.875V1.875Z" fill="#39BCA9"/>
<path d="M1.875 9.375H18.75V13.125H1.875V9.375Z" fill="#39BCA9"/>
</svg>
