<svg width="61" height="60" viewBox="0 0 61 60" fill="none" xmlns="http://www.w3.org/2000/svg">
<g clip-path="url(#clip0_255_27014)">
<path d="M59.219 0.0800781H38.9343C38.2937 0.0800781 37.8667 0.50702 37.8667 1.14769V10.9694C37.8667 11.8238 37.5466 12.6777 36.906 13.2115L35.0908 15.0267H59.219C59.8597 15.0267 60.2866 14.5998 60.2866 13.9591V1.14769C60.2866 0.50702 59.8597 0.0800781 59.219 0.0800781ZM53.881 12.8915H40.002V10.7562H53.881V12.8915ZM58.1514 8.621H40.002V6.48577H58.1514V8.621ZM58.1514 4.35054H40.002V2.21531H58.1514V4.35054Z" fill="#39BCA9"/>
<path d="M17.7957 9.36883C19.0765 10.1164 20.571 10.2232 21.9592 9.68943L25.8028 8.088C23.2401 3.60381 17.4751 2.00239 12.8845 4.56456C10.5356 5.95277 8.82726 8.19487 8.29346 10.8639V10.9703L10.9625 9.4757C13.0977 8.088 15.6604 8.19487 17.7957 9.36883Z" fill="#39BCA9"/>
<path d="M7.97333 36.3797H10.1086V49.1911H16.5143V32.1093L13.2045 34.5646L8.50714 29.8672L6.26504 30.6147C4.12981 31.3617 2.63525 33.3901 2.63525 35.6322V49.1911H7.97333V36.3797Z" fill="#39BCA9"/>
<path d="M10.0017 21.4316H13.3114C13.3114 21.111 13.0977 20.7909 12.8844 20.5772L11.6031 19.7233C10.7492 19.0826 10.2154 18.1219 10.2154 17.0543V12.25L7.86644 13.6377L6.90569 17.5881C6.58562 19.2964 7.65323 21.0047 9.361 21.4316H10.0017Z" fill="#39BCA9"/>
<path d="M25.0554 17.0561C25.0554 18.1237 24.5216 19.0845 23.6677 19.7252L22.3863 20.5791C22.0663 20.7928 21.8525 21.1129 21.8525 21.4335H25.1623C26.9769 21.4335 28.3651 20.0452 28.3651 18.2306C28.3651 18.0169 28.3651 17.8037 28.2582 17.5899L26.8705 10.7573C26.7637 10.5436 26.7637 10.2235 26.6568 10.0098L25.0554 10.6504V17.0561Z" fill="#39BCA9"/>
<path d="M19.7169 21.5388C19.7169 20.4712 20.2507 19.5099 21.1046 18.8698L22.3859 18.0154C22.706 17.8022 22.8129 17.4816 22.8129 17.1615V11.7165H22.706C20.6776 12.5704 18.4355 12.4641 16.6209 11.2896C15.2327 10.4352 13.6313 10.4352 12.1367 11.1827V17.1615C12.1367 17.4816 12.3505 17.8022 12.5637 18.0154L13.845 18.8698C14.6989 19.5099 15.2327 20.4712 15.2327 21.5388V25.7024H19.5032V21.5388H19.7169Z" fill="#39BCA9"/>
<path d="M10.749 29.1187L13.4181 31.7878L16.514 29.4393V27.8379H14.5925L10.749 29.1187Z" fill="#39BCA9"/>
<path d="M24.4144 29.1187L20.5709 27.8379H18.6494V29.4393L21.7454 31.7878L24.4144 29.1187Z" fill="#39BCA9"/>
<path d="M32.5284 42.8923V35.6322C32.5284 33.2838 31.0339 31.2549 28.8986 30.6147L26.6565 29.8672L21.9591 34.5646L18.6494 32.1093V49.1911H25.0551V40.6502H27.1903V49.1911H29.3256V49.0843C29.3256 46.629 30.5001 44.28 32.5284 42.8923ZM27.1903 38.515H20.7846V36.3797H27.1903V38.515Z" fill="#39BCA9"/>
<path d="M49.3965 38.4066C51.5317 37.1253 52.8131 34.8837 52.8131 32.4279V21.4316H42.1369C40.3218 21.4316 38.9341 22.8193 38.9341 24.6345V32.4279C38.9341 36.2714 42.0301 39.3674 45.8736 39.3674C47.1549 39.3674 48.3289 39.0473 49.3965 38.4066Z" fill="#39BCA9"/>
<path d="M57.1907 44.1719L49.6105 40.7559C47.2616 41.8235 44.5925 41.8235 42.351 40.7559L34.7708 44.1719C32.8488 45.0263 31.6748 46.9478 31.6748 49.0831V59.8661H60.5004V49.0831C60.2867 46.9478 59.1122 45.0263 57.1907 44.1719Z" fill="#39BCA9"/>
<path d="M0.5 59.8671H29.3256V51.3262H0.5V59.8671ZM12.2438 54.529H22.9199V56.6642H12.2438V54.529Z" fill="#39BCA9"/>
</g>
<defs>
<clipPath id="clip0_255_27014">
<rect width="60" height="60" fill="white" transform="translate(0.5)"/>
</clipPath>
</defs>
</svg>
