<svg width="80" height="74" viewBox="0 0 80 74" fill="none" xmlns="http://www.w3.org/2000/svg">
<circle cx="44" cy="42" r="30" fill="#B1E3DC"/>
<g clip-path="url(#clip0_198_2806)">
<path d="M37.8376 10.9048C36.4844 9.96005 34.7532 9.74008 33.2071 10.3161L13.5565 17.6334C13.2889 17.7326 13.0619 17.894 12.8856 18.0937H5.03757C2.26006 18.0937 0 20.3594 0 23.1439V28.9037C0 31.125 1.43822 33.0144 3.4294 33.6883V43.7889C3.4294 47.2129 6.20819 50 9.62491 50C13.0416 50 15.8204 47.2142 15.8204 43.7889V35.4111L33.0106 42.6064C33.6358 42.8683 34.2966 42.998 34.9536 42.998C35.9314 42.998 36.9029 42.7119 37.7437 42.1499C39.149 41.2116 39.9886 39.6413 39.9899 37.949L40 15.051C39.9987 13.4007 39.1908 11.8495 37.8376 10.9048ZM3.35838 23.1452C3.35838 22.217 4.11173 21.4618 5.03757 21.4618H12.462V30.5884H5.03757C4.11173 30.5884 3.35838 29.8332 3.35838 28.905V23.1452ZM12.462 43.7901C12.462 45.3578 11.19 46.6344 9.62491 46.6344C8.05986 46.6344 6.78779 45.3591 6.78779 43.7901V34.1841H12.4608V43.7901H12.462ZM36.6302 37.949C36.6302 38.5211 36.3575 39.0323 35.8819 39.3489C35.4063 39.6667 34.8318 39.7214 34.3042 39.5014L15.8204 31.7633V20.3823L34.3765 13.4719C34.899 13.2773 35.4621 13.3485 35.92 13.6677C36.3778 13.9868 36.6404 14.4916 36.6404 15.0498L36.6302 37.949Z" fill="#083C2F"/>
<path d="M46.1114 18C46.2063 18 46.3035 17.9807 46.3996 17.9422L55.1755 14.3448C55.7688 14.1019 56.1202 13.1692 55.9622 12.2608C55.8029 11.3538 55.1925 10.8154 54.6004 11.0583L45.8245 14.6557C45.2312 14.8985 44.8798 15.8313 45.0378 16.7396C45.1716 17.4976 45.6214 18 46.1114 18Z" fill="#083C2F"/>
<path d="M55.1752 38.6557L46.3999 35.0583C45.8078 34.8154 45.1975 35.3538 45.0383 36.2608C44.879 37.1679 45.2316 38.1007 45.8248 38.3448L54.6001 41.9422C54.6961 41.982 54.7934 42 54.8882 42C55.3794 42 55.828 41.4989 55.9617 40.7383C56.121 39.8326 55.7684 38.8998 55.1752 38.6557Z" fill="#083C2F"/>
<path d="M58.8371 25H46.1629C45.5211 25 45 25.6718 45 26.5C45 27.3282 45.5198 28 46.1629 28H58.8371C59.4789 28 60 27.3282 60 26.5C60 25.6718 59.4789 25 58.8371 25Z" fill="#083C2F"/>
</g>
<defs>
<clipPath id="clip0_198_2806">
<rect width="60" height="60" fill="white"/>
</clipPath>
</defs>
</svg>
