<svg width="81" height="74" viewBox="0 0 81 74" fill="none" xmlns="http://www.w3.org/2000/svg">
<circle cx="45.7903" cy="42" r="30" fill="#B1E3DC"/>
<path d="M41 39.9463V33.2553C40.9985 31.7068 40.5483 30.1984 39.7139 28.9456C38.8795 27.6929 37.7036 26.7598 36.354 26.2798C37.3899 25.4032 38.1488 24.1953 38.5244 22.8251C38.9001 21.4548 38.8737 19.9908 38.4491 18.6377C38.0244 17.2846 37.2226 16.1101 36.156 15.2786C35.0893 14.447 33.811 14 32.5 14C31.189 14 29.9107 14.447 28.844 15.2786C27.7774 16.1101 26.9756 17.2846 26.5509 18.6377C26.1263 19.9908 26.0999 21.4548 26.4756 22.8251C26.8512 24.1953 27.6101 25.4032 28.646 26.2798C27.2964 26.7598 26.1205 27.6929 25.2861 28.9456C24.4517 30.1984 24.0015 31.7068 24 33.2553V39.9463C24 40.2258 24.1018 40.4938 24.2829 40.6914C24.4641 40.889 24.7097 41 24.9659 41H40.0341C40.2903 41 40.5359 40.889 40.7171 40.6914C40.8982 40.4938 41 40.2258 41 39.9463ZM28.1437 20.8848C28.1418 19.9445 28.3957 19.0247 28.8732 18.2418C29.3507 17.4589 30.0304 16.8482 30.8262 16.4869C31.6221 16.1256 32.4983 16.0299 33.3439 16.2121C34.1896 16.3943 34.9667 16.8461 35.5769 17.5102C36.1871 18.1744 36.603 19.0212 36.7718 19.9433C36.9407 20.8654 36.855 21.8215 36.5256 22.6904C36.1961 23.5594 35.6378 24.3022 34.9212 24.8249C34.2046 25.3475 33.362 25.6265 32.5 25.6265C31.3464 25.6262 30.24 25.1269 29.4234 24.238C28.6067 23.3491 28.1466 22.1433 28.1437 20.8848ZM39.0682 38.8926H25.9318V33.2553C25.9317 32.5689 26.0555 31.8892 26.2962 31.2551C26.537 30.6209 26.8899 30.0447 27.3348 29.5594C27.7797 29.074 28.3079 28.6891 28.8892 28.4265C29.4705 28.1639 30.0935 28.0288 30.7227 28.0289H34.2773C35.5474 28.0306 36.7651 28.5818 37.6633 29.5615C38.5614 30.5413 39.0666 31.8697 39.0682 33.2553V38.8926Z" fill="#083C2F"/>
<path d="M23.9383 48.7404C23.938 48.4505 23.9586 48.1609 24 47.8738C20.0826 46.3575 16.6895 43.7751 14.2208 40.4309C11.752 37.0868 10.3107 33.1205 10.0668 29H8C8.25433 33.6486 9.90211 38.1204 12.7371 41.8557C15.5721 45.5911 19.4684 48.424 23.9383 50V48.7404Z" fill="#083C2F"/>
<path d="M12.2356 18C13.8936 14.4165 16.4559 11.3413 19.6627 9.08591C22.8695 6.83053 26.6069 5.47511 30.4964 5.15698C34.3858 4.83886 38.289 5.56932 41.8106 7.27438C45.3321 8.97944 48.3469 11.5985 50.5494 14.8662H53C50.7966 11.164 47.6686 8.11759 43.9325 6.03509C40.1963 3.95259 35.9844 2.90781 31.7225 3.00638C27.4607 3.10496 23.3001 4.3434 19.6614 6.59649C16.0226 8.84957 13.0348 12.0374 11 15.8377L12.2356 18Z" fill="#083C2F"/>
<path d="M56 29H53.9345C53.7545 33.1178 52.3414 37.096 49.8673 40.4502C47.3932 43.8043 43.9649 46.3896 40 47.891C40.0417 48.1778 40.0623 48.467 40.0617 48.7565V50C44.579 48.4379 48.5105 45.6035 51.3508 41.8613C54.191 38.1191 55.8101 33.6401 56 29Z" fill="#083C2F"/>
<path d="M59 17H51.6448C51.5834 17.0099 51.5205 17.0099 51.459 17H49V26H59V17Z" fill="#083C2F"/>
<path d="M30.3445 57H33.6555C34.8071 56.9979 35.9109 56.5399 36.7252 55.7263C37.5395 54.9126 37.9979 53.8098 38 52.6591V49.3509C38 48.1987 37.5426 47.0935 36.7281 46.2779C35.9137 45.4622 34.8087 45.0027 33.6555 45H30.3445C29.1913 45.0027 28.0863 45.4622 27.2719 46.2779C26.4574 47.0935 26 48.1987 26 49.3509V52.6591C26.0021 53.8098 26.4605 54.9126 27.2748 55.7263C28.0891 56.5399 29.1929 56.9979 30.3445 57Z" fill="#083C2F"/>
<path d="M10.5163 18.7632L10.5063 18.7526L10.4062 18.5621L9.005 16L3 27H15L10.5263 18.7844L10.5163 18.7632Z" fill="#083C2F"/>
</svg>
