<svg width="81" height="74" viewBox="0 0 81 74" fill="none" xmlns="http://www.w3.org/2000/svg">
<circle cx="45.7903" cy="42" r="30" fill="#B1E3DC"/>
<path d="M21.7903 51V33C21.7903 29.6863 19.104 27 15.7903 27H9.79028C6.47657 27 3.79028 29.6863 3.79028 33V51C3.79028 54.3137 6.47657 57 9.79028 57H15.7903C19.104 57 21.7903 54.3137 21.7903 51ZM21.7903 51V21C21.7903 17.6863 24.4766 15 27.7903 15H33.7903C37.104 15 39.7903 17.6863 39.7903 21V51M21.7903 51C21.7903 54.3137 24.4766 57 27.7903 57H33.7903C37.104 57 39.7903 54.3137 39.7903 51M39.7903 51V9C39.7903 5.68629 42.4766 3 45.7903 3H51.7903C55.104 3 57.7903 5.68629 57.7903 9V51C57.7903 54.3137 55.104 57 51.7903 57H45.7903C42.4766 57 39.7903 54.3137 39.7903 51Z" stroke="#083C2F" stroke-width="4" stroke-linecap="round" stroke-linejoin="round"/>
</svg>
