<svg width="80" height="74" viewBox="0 0 80 74" fill="none" xmlns="http://www.w3.org/2000/svg">
<circle cx="44" cy="42" r="30" fill="#B1E3DC"/>
<g clip-path="url(#clip0_198_2809)">
<path d="M45.8138 15.2637C37.9915 15.2637 31.6277 21.6276 31.6277 29.4498C31.6277 37.272 37.9915 43.6359 45.8138 43.6359C53.6361 43.6359 60.0001 37.2721 60.0001 29.4499C60.0001 21.6277 53.6362 15.2637 45.8138 15.2637ZM45.8138 40.1219C39.9293 40.1219 35.1418 35.3344 35.1418 29.4499C35.1418 23.5654 39.9293 18.7779 45.8138 18.7779C51.6983 18.7779 56.4858 23.5654 56.4858 29.4499C56.4858 35.3344 51.6984 40.1219 45.8138 40.1219Z" fill="#083C2F"/>
<path d="M49.8111 27.6934C48.8407 27.6934 48.0541 28.4801 48.0541 29.4504C48.0541 30.6856 47.0491 31.6907 45.8138 31.6907C44.5785 31.6907 43.5734 30.6856 43.5734 29.4504C43.5734 28.4801 42.7867 27.6934 41.8164 27.6934C40.846 27.6934 40.0593 28.4801 40.0593 29.4504C40.0593 32.6233 42.6408 35.2048 45.8138 35.2048C48.9868 35.2048 51.5682 32.6233 51.5682 29.4504C51.5682 28.4801 50.7816 27.6934 49.8111 27.6934Z" fill="#083C2F"/>
<path d="M3.23346 16.5319L14.7494 26.334C15.0778 26.6134 15.483 26.7531 15.8884 26.7531C16.2933 26.7531 16.6984 26.6136 17.0265 26.3347L28.5064 16.5744C28.5149 16.5671 28.5235 16.5597 28.5319 16.5524L28.532 16.5525C31.4909 14.0647 32.5235 10.239 31.227 6.5684C29.8523 2.67652 26.3365 0.108639 22.2695 0.0250032C19.9261 -0.0370795 17.6785 0.724312 15.8884 2.15175C14.0981 0.724078 11.8559 -0.0364938 9.5058 0.0252375C5.43974 0.108522 1.92492 2.6757 0.549964 6.56653C-0.745222 10.2317 0.286171 14.0528 3.23346 16.5319ZM3.86331 7.73743C4.53403 5.83969 6.43376 3.60132 9.58147 3.53853C9.58569 3.53842 9.58979 3.53842 9.59401 3.5383C9.65281 3.53666 9.7115 3.53584 9.77006 3.53584C11.6192 3.53584 13.3548 4.32839 14.5544 5.72736C14.8884 6.1166 15.3754 6.34057 15.8883 6.34057C16.4011 6.34057 16.8881 6.1166 17.222 5.72736C18.4594 4.28458 20.2691 3.48699 22.1818 3.53818C22.1858 3.5383 22.1899 3.53842 22.1941 3.53842C25.3426 3.60144 27.2429 5.84051 27.9134 7.73884C28.7222 10.0285 28.108 12.3178 26.2705 13.8628C26.2674 13.8653 26.2642 13.868 26.2611 13.8707C26.1547 13.9613 18.7749 20.2356 15.8891 22.6891L5.50346 13.8492C3.66909 12.3065 3.05611 10.0217 3.86331 7.73743Z" fill="#083C2F"/>
<path d="M28.815 40.2406L25.2782 40.2299L25.8466 37.7802C26.2068 36.2283 25.9326 34.6341 25.0748 33.2918C23.9419 31.4614 21.8238 30.4389 19.689 30.6687C19.0099 30.6687 18.3918 31.0599 18.1011 31.6736L15.6749 36.7951C15.0799 38.0515 14.1579 39.1292 13.0087 39.9115L8.9558 42.6713H1.7678C0.797435 42.6713 0.0107422 43.458 0.0107422 44.4283V58.2239C0.0107422 59.1943 0.797435 59.981 1.7678 59.981H24.2333C27.2646 59.981 30.0618 58.2109 31.3595 55.4714L34.3894 49.0755C35.3012 47.1508 35.167 44.9265 34.0304 43.1254C32.8938 41.3243 30.9437 40.2458 28.815 40.2406ZM3.52486 46.1854H7.73442V56.4591H3.52486V46.1854ZM31.2137 47.5711L28.1838 53.9671C27.4643 55.4856 25.9138 56.4669 24.2333 56.4669H11.2484V45.3617L14.9866 42.8163C16.6522 41.6822 17.9884 40.1203 18.8507 38.2995L20.796 34.1929C21.341 34.3529 21.804 34.6997 22.1135 35.184C22.4577 35.7229 22.5678 36.3629 22.4233 36.9859L21.3565 41.5831C21.2356 42.1041 21.3586 42.652 21.6906 43.0712C22.0228 43.4905 22.5277 43.7357 23.0626 43.7372L28.805 43.7546C29.7387 43.7569 30.56 44.2111 31.0583 45.0007C31.5569 45.7904 31.6134 46.7273 31.2137 47.5711Z" fill="#083C2F"/>
</g>
<defs>
<clipPath id="clip0_198_2809">
<rect width="60" height="60" fill="white"/>
</clipPath>
</defs>
</svg>
