<svg width="81" height="74" viewBox="0 0 81 74" fill="none" xmlns="http://www.w3.org/2000/svg">
<circle cx="50.8953" cy="42" r="30" fill="#B1E3DC"/>
<g clip-path="url(#clip0_198_2807)">
<path d="M7.09703 41.4162C5.3841 37.8366 4.51562 33.9956 4.51562 30C4.51562 15.3964 16.3964 3.51562 31 3.51562C36.8025 3.51562 42.3202 5.36895 46.8768 8.79574L42.4909 9.37313C41.5285 9.4998 40.8509 10.3828 40.9776 11.3453C41.1043 12.3079 41.9873 12.9853 42.9497 12.8586L51.1996 11.7725C52.1621 11.6459 52.8396 10.7629 52.713 9.80039L51.6268 1.55063C51.5001 0.588164 50.6171 -0.0894141 49.6546 0.0372656H49.6545C48.692 0.163945 48.0145 1.04695 48.1411 2.00941L48.6297 5.72051C43.538 2.00602 37.4234 0 31 0C22.9867 0 15.4531 3.12047 9.78672 8.78672C4.12059 14.4531 1 21.9867 1 30C1 34.5251 1.98437 38.8766 3.92594 42.9338C4.345 43.8095 5.39453 44.1797 6.27027 43.7606C7.1459 43.3416 7.51609 42.2919 7.09703 41.4162Z" fill="#083C2F"/>
<path d="M58.0741 17.0659C57.655 16.1901 56.6055 15.82 55.7298 16.239C54.8541 16.6581 54.484 17.7076 54.9029 18.5833C56.6159 22.1631 57.4844 26.004 57.4844 29.9996C57.4844 44.6032 45.6036 56.484 31 56.484C25.1982 56.484 19.6818 54.63 15.1257 51.2035L19.509 50.6265C20.4714 50.4998 21.149 49.6168 21.0223 48.6544C20.8957 47.6918 20.0127 47.0143 19.0502 47.141L10.8003 48.2271C9.83786 48.3538 9.16028 49.2368 9.28696 50.1992L10.3732 58.449C10.4998 59.4115 11.3829 60.0891 12.3453 59.9624C13.3078 59.8357 13.9855 58.9527 13.8588 57.9902L13.3701 54.2785C18.462 57.9933 24.5764 59.9996 31 59.9996C39.0133 59.9996 46.547 56.8792 52.2133 51.2129C57.8795 45.5466 61 38.0129 61 29.9996C61 25.4746 60.0157 21.123 58.0741 17.0659Z" fill="#083C2F"/>
<path d="M47.3138 27.3471L48.138 26.8712C48.9787 26.3858 49.2667 25.3107 48.7814 24.47L44.6798 17.3659C44.1944 16.5252 43.1193 16.237 42.2786 16.7225L41.4004 17.2296C40.4422 17.7829 39.2958 17.7768 38.3417 17.2112C37.4083 16.6579 36.8594 15.6304 36.8594 14.5453V13.5938C36.8594 12.623 36.0724 11.8359 35.1016 11.8359H26.8985C25.9277 11.8359 25.1407 12.623 25.1407 13.5938V14.5457C25.1407 15.6306 24.5917 16.658 23.6585 17.2111C22.7043 17.7766 21.558 17.7827 20.5996 17.2295L19.7214 16.7224C18.8807 16.237 17.8057 16.5251 17.3203 17.3658L13.2187 24.4699C12.7333 25.3106 13.0214 26.3857 13.8621 26.8711L14.6862 27.347C15.626 27.8896 16.2413 28.8786 16.2536 29.9636C16.2663 31.0726 15.6984 32.0684 14.7401 32.6216L13.8621 33.1286C13.0214 33.6139 12.7333 34.689 13.2187 35.5297L17.3203 42.6339C17.8057 43.4746 18.8807 43.7627 19.7214 43.2772L20.5996 42.7702C21.5579 42.2169 22.7042 42.223 23.6583 42.7886C24.5917 43.3421 25.1407 44.3696 25.1407 45.4547V46.4062C25.1407 47.377 25.9277 48.1641 26.8985 48.1641H35.1016C36.0724 48.1641 36.8594 47.377 36.8594 46.4062V45.4543C36.8594 44.3694 37.4083 43.342 38.3416 42.7889C39.2957 42.2234 40.4421 42.2173 41.4004 42.7705L42.2786 43.2776C43.1193 43.763 44.1944 43.4749 44.6798 42.6342L48.7814 35.5301C49.2667 34.6894 48.9787 33.6143 48.138 33.1289L47.2599 32.622C46.3017 32.0687 45.7338 31.073 45.7464 29.9639C45.7587 28.8787 46.3741 27.8896 47.3138 27.3471ZM44.8783 35.259L42.4937 39.3893C40.5952 38.5563 38.4464 38.6686 36.6152 39.7259C34.784 40.783 33.6126 42.5877 33.3847 44.6484H28.6155C28.3876 42.5878 27.2162 40.7831 25.385 39.7259C23.5536 38.6686 21.405 38.5563 19.5065 39.3893L17.1219 35.259C18.7923 34.0313 19.7696 32.1143 19.7696 30C19.7696 27.8857 18.7923 25.9686 17.1219 24.741L19.5065 20.6107C21.405 21.4437 23.5538 21.3314 25.385 20.2741C27.2162 19.217 28.3876 17.4123 28.6155 15.3516H33.3847C33.6126 17.4122 34.784 19.2169 36.6152 20.2741C38.4466 21.3314 40.5952 21.4436 42.4937 20.6107L44.8783 24.741C43.2079 25.9688 42.2306 27.8857 42.2306 30C42.2306 32.1143 43.2079 34.0314 44.8783 35.259Z" fill="#083C2F"/>
<path d="M31 22.3828C26.7999 22.3828 23.3828 25.7999 23.3828 30C23.3828 34.2001 26.7999 37.6172 31 37.6172C35.2001 37.6172 38.6172 34.2001 38.6172 30C38.6172 25.7999 35.2001 22.3828 31 22.3828ZM31 34.1016C28.7384 34.1016 26.8984 32.2616 26.8984 30C26.8984 27.7384 28.7384 25.8984 31 25.8984C33.2616 25.8984 35.1016 27.7384 35.1016 30C35.1016 32.2616 33.2616 34.1016 31 34.1016Z" fill="#083C2F"/>
</g>
<defs>
<clipPath id="clip0_198_2807">
<rect width="60" height="60" fill="white" transform="translate(1)"/>
</clipPath>
</defs>
</svg>
