<svg width="81" height="74" viewBox="0 0 81 74" fill="none" xmlns="http://www.w3.org/2000/svg">
<circle cx="50.8953" cy="42" r="30" fill="#B1E3DC"/>
<g clip-path="url(#clip0_198_2810)">
<path d="M51.4826 31.9461H29.0539V9.5175C29.0539 8.48203 28.2143 7.6425 27.1789 7.6425C20.1863 7.6425 13.6122 10.3656 8.6677 15.3101C3.72309 20.2546 1 26.8286 1 33.8211C1 40.8138 3.72309 47.3879 8.66758 52.3324C13.6122 57.2769 20.1862 60 27.1789 60C34.1716 60 40.7455 57.2769 45.69 52.3323C50.6345 47.3879 53.3576 40.8137 53.3576 33.8211C53.3576 32.7857 52.5181 31.9461 51.4826 31.9461ZM25.3039 56.1709C20.5261 55.7735 16.1695 53.8723 12.7087 50.9429L25.3039 38.3479V56.1709ZM25.3039 11.4701V33.0448L10.0571 48.2914C6.74852 44.3827 4.75 39.3313 4.75 33.8211C4.75 22.0849 13.8101 12.4253 25.3039 11.4701ZM29.0539 56.1708V35.6961H49.53C48.6262 46.5715 39.9289 55.2663 29.0539 56.1708ZM53.3324 7.66758C48.3878 2.72309 41.8138 0 34.8211 0C33.7857 0 32.9461 0.839531 32.9461 1.875V26.1789C32.9461 27.2143 33.7857 28.0539 34.8211 28.0539H59.125C60.1605 28.0539 61 27.2143 61 26.1789C61 19.1862 58.2769 12.6122 53.3324 7.66758ZM36.6961 24.3039V3.82758C47.572 4.73145 56.2684 13.428 57.1723 24.3037H36.6961V24.3039Z" fill="#083C2F"/>
</g>
<defs>
<clipPath id="clip0_198_2810">
<rect width="60" height="60" fill="white" transform="translate(1)"/>
</clipPath>
</defs>
</svg>
