<svg width="60" height="60" viewBox="0 0 60 60" fill="none" xmlns="http://www.w3.org/2000/svg">
<g clip-path="url(#clip0_255_26997)">
<path d="M59.5607 4.96256L56.5605 1.96283C55.9755 1.37735 55.0261 1.3769 54.4406 1.96192C54.4401 1.96238 54.4397 1.96238 54.4397 1.96283L36.4395 19.9626C36.1584 20.2441 36 20.6254 36 21.0232V24.0234C36 24.8515 36.6715 25.523 37.5001 25.523H40.5003C40.8981 25.523 41.2794 25.3651 41.5605 25.084L59.5607 7.08384C60.1461 6.49836 60.1466 5.54942 59.5616 4.96348C59.5611 4.96348 59.5607 4.96302 59.5607 4.96256Z" fill="#39BCA9"/>
<path d="M40.5002 28.5234H37.5C35.0158 28.5206 33.0025 26.5074 32.9998 24.0235V21.0234C32.997 19.8295 33.4717 18.6837 34.3181 17.8419L44.6366 7.52344H7.50001C3.35953 7.52802 0.00457764 10.883 0 15.0234V42.0233C0.00457764 46.1638 3.35953 49.5192 7.50001 49.5233H20.9999V57.0233C20.9999 57.8519 21.6715 58.5234 22.5 58.5234C22.8246 58.5234 23.1404 58.4181 23.4 58.2231L35.0016 49.5233H49.4999C53.6403 49.5187 56.9958 46.1633 56.9999 42.0233V13.8868L43.6817 27.205C42.8394 28.0519 41.6941 28.5261 40.5002 28.5234ZM10.5002 16.5235H25.5002C26.3283 16.5235 26.9998 17.1951 26.9998 18.0236C26.9998 18.8517 26.3283 19.5233 25.5002 19.5233H10.5002C9.67164 19.5233 9.0001 18.8522 9.0001 18.0236C9.0001 17.1951 9.67164 16.5235 10.5002 16.5235ZM10.5002 25.5232H25.5002C26.3283 25.5232 26.9998 26.1947 26.9998 27.0233C26.9998 27.8518 26.3283 28.5234 25.5002 28.5234H10.5002C9.67164 28.5234 9.0001 27.8518 9.0001 27.0233C9.0001 26.1952 9.67164 25.5232 10.5002 25.5232ZM47.9998 36.0234C47.9998 36.8519 47.3282 37.5235 46.5001 37.5235H10.5002C9.67164 37.5235 9.0001 36.8519 9.0001 36.0234C9.0001 35.1953 9.67164 34.5233 10.5002 34.5233H46.5001C47.3282 34.5233 47.9998 35.1948 47.9998 36.0234Z" fill="#39BCA9"/>
</g>
<defs>
<clipPath id="clip0_255_26997">
<rect width="60" height="60" fill="white"/>
</clipPath>
</defs>
</svg>
