<svg width="60" height="61" viewBox="0 0 60 61" fill="none" xmlns="http://www.w3.org/2000/svg">
<g clip-path="url(#clip0_447_12309)">
<path d="M24.6641 31.1762H34.2395L35.5953 21.5586H26.0211L24.6641 31.1762Z" fill="#39BCA9"/>
<path d="M58.718 12.972C57.5895 7.87672 52.65 3.20914 47.5406 2.21774C44.4269 1.59547 35.7422 0.826723 30 0.886488C24.2578 0.823207 15.5742 1.58961 12.4605 2.21422C7.35117 3.20914 2.41172 7.87672 1.28906 12.972C0.641016 16.067 0.009375 20.274 0 26.0209C0.0105469 31.7631 0.641016 35.9736 1.28906 39.0685C2.37539 43.9728 6.99141 48.4787 11.8922 49.6939C12.2052 49.8075 12.486 49.9951 12.7106 50.2408C12.9353 50.4865 13.0972 50.783 13.1824 51.1048C13.2676 51.4267 13.2736 51.7644 13.2 52.089C13.1263 52.4137 12.9751 52.7157 12.7594 52.9693C11.839 54.0457 10.8457 55.0575 9.78633 55.9974C9.36049 56.3713 9.05852 56.8659 8.92056 57.4155C8.78261 57.9652 8.8152 58.5438 9.014 59.0744C9.21281 59.6051 9.56841 60.0626 10.0335 60.3863C10.4987 60.71 11.0513 60.8845 11.618 60.8865C11.6812 60.8865 11.7434 60.8865 11.8066 60.8806C19.6698 60.5535 27.3084 58.1629 33.9551 53.949C36.8555 51.9732 40.1566 50.8798 43.6008 50.3806C45.2414 50.1978 46.6301 50.0045 47.5383 49.8228C52.6477 48.8314 57.5871 44.1638 58.7156 39.0685C59.3578 35.9736 59.9883 31.7654 59.9988 26.0209C59.9906 20.2752 59.3602 16.067 58.718 12.972ZM42.3832 21.5584H40.0922L38.7352 31.1759H40.3898C40.9804 31.1759 41.5467 31.4105 41.9643 31.8281C42.3818 32.2456 42.6164 32.812 42.6164 33.4025C42.6164 33.993 42.3818 34.5594 41.9643 34.9769C41.5467 35.3945 40.9804 35.6291 40.3898 35.6291H38.1082L37.5 39.9334C37.4252 40.4644 37.1613 40.9505 36.7568 41.3025C36.3522 41.6545 35.8343 41.8487 35.298 41.8494C35.193 41.8489 35.0881 41.8415 34.984 41.8271C34.6944 41.7863 34.4157 41.6888 34.1639 41.5403C33.912 41.3917 33.6918 41.195 33.516 40.9614C33.3401 40.7277 33.212 40.4617 33.139 40.1786C33.0659 39.8954 33.0494 39.6007 33.0902 39.3111L33.6094 35.6291H24.0352L23.4281 39.9334C23.3533 40.4644 23.0894 40.9505 22.6849 41.3025C22.2804 41.6545 21.7624 41.8487 21.2262 41.8494C21.1211 41.8489 21.0162 41.8414 20.9121 41.8271C20.6225 41.7863 20.3439 41.6888 20.092 41.5403C19.8401 41.3917 19.6199 41.195 19.4441 40.9614C19.2682 40.7277 19.1401 40.4617 19.0671 40.1786C18.994 39.8954 18.9775 39.6007 19.0184 39.3111L19.5375 35.6291H17.6156C17.0251 35.6291 16.4588 35.3945 16.0412 34.9769C15.6236 34.5594 15.3891 33.993 15.3891 33.4025C15.3891 32.812 15.6236 32.2456 16.0412 31.8281C16.4588 31.4105 17.0251 31.1759 17.6156 31.1759H20.1656L21.5215 21.5584H19.6102C19.0196 21.5584 18.4533 21.3238 18.0357 20.9062C17.6182 20.4887 17.3836 19.9223 17.3836 19.3318C17.3836 18.7413 17.6182 18.1749 18.0357 17.7574C18.4533 17.3398 19.0196 17.1052 19.6102 17.1052H22.1484L22.7555 12.8009C22.7965 12.5113 22.8941 12.2326 23.0429 11.9807C23.1916 11.7288 23.3885 11.5087 23.6223 11.3329C24.0944 10.9779 24.6883 10.8249 25.2732 10.9078C25.5629 10.9488 25.8416 11.0464 26.0935 11.1952C26.3454 11.3439 26.5655 11.5408 26.7413 11.7746C26.9171 12.0084 27.0451 12.2745 27.118 12.5578C27.191 12.8411 27.2074 13.1359 27.1664 13.4256L26.6484 17.1052H36.2227L36.8297 12.8009C36.8667 12.5081 36.9616 12.2255 37.1088 11.9696C37.2561 11.7137 37.4527 11.4897 37.6873 11.3105C37.922 11.1313 38.1899 11.0006 38.4755 10.9259C38.7611 10.8513 39.0587 10.8341 39.351 10.8755C39.6433 10.917 39.9245 11.0161 40.1781 11.1671C40.4317 11.3182 40.6528 11.5182 40.8284 11.7555C41.004 11.9928 41.1307 12.2627 41.2011 12.5494C41.2714 12.8361 41.2841 13.1339 41.2383 13.4256L40.7191 17.1076H42.3832C42.9737 17.1076 43.5401 17.3422 43.9576 17.7597C44.3752 18.1773 44.6098 18.7436 44.6098 19.3341C44.6098 19.9247 44.3752 20.491 43.9576 20.9086C43.5401 21.3261 42.9737 21.5607 42.3832 21.5607V21.5584Z" fill="#39BCA9"/>
</g>
<defs>
<clipPath id="clip0_447_12309">
<rect width="60" height="60" fill="white" transform="translate(0 0.886719)"/>
</clipPath>
</defs>
</svg>
