<svg width="50" height="50" viewBox="0 0 50 50" fill="none" xmlns="http://www.w3.org/2000/svg">
<circle cx="25" cy="25" r="25" fill="#E0E6E4"/>
<path d="M31.5556 29.4624C32.9389 30.0502 33.7778 30.8213 33.7778 31.6668C33.7778 33.5079 29.7978 35.0002 24.8889 35.0002C19.98 35.0002 16 33.5079 16 31.6668C16 30.8224 16.8389 30.049 18.2222 29.4624" stroke="#083C2F" stroke-width="1.5" stroke-linecap="round" stroke-linejoin="round"/>
<path d="M30.4438 21.0489C30.4438 24.4856 24.8882 30.5556 24.8882 30.5556C24.8882 30.5556 19.3326 24.4856 19.3326 21.0489C19.3326 17.6133 21.8204 15 24.8882 15C27.956 15 30.4438 17.6133 30.4438 21.0489Z" stroke="#083C2F" stroke-width="1.5" stroke-linecap="round" stroke-linejoin="round"/>
<path d="M24.8887 21.6666C25.5023 21.6666 25.9998 21.1691 25.9998 20.5555C25.9998 19.9418 25.5023 19.4444 24.8887 19.4444C24.275 19.4444 23.7775 19.9418 23.7775 20.5555C23.7775 21.1691 24.275 21.6666 24.8887 21.6666Z" stroke="#083C2F" stroke-width="1.5" stroke-linecap="round" stroke-linejoin="round"/>
</svg>
