<svg width="81" height="74" viewBox="0 0 81 74" fill="none" xmlns="http://www.w3.org/2000/svg">
<circle cx="45.79" cy="42" r="30" fill="#F4F4F4"/>
<path fill-rule="evenodd" clip-rule="evenodd" d="M49.1477 23.2395V30.7709C49.1477 31.2257 48.779 31.5944 48.3242 31.5944H38.3924V29.9473H47.5006V13.4491C46.5831 13.1129 45.9276 12.2313 45.9276 11.1979C45.9276 9.87523 47.0015 8.80134 48.3242 8.80134C49.6469 8.80134 50.7208 9.87523 50.7208 11.1979C50.7208 12.2313 50.0652 13.1129 49.1477 13.4491V21.5924H54.9338C55.2617 20.7691 56.0663 20.1866 57.0059 20.1866C58.2363 20.1866 59.2352 21.1856 59.2352 22.4159C59.2352 23.6464 58.2363 24.6453 57.0059 24.6453C56.0663 24.6453 55.2617 24.0628 54.9338 23.2395H49.1477ZM45.0184 41.2948V36.2102H38.3921C38.3923 36.1944 38.3924 36.1788 38.3924 36.163V34.5631H45.8419C46.2968 34.5631 46.6655 34.9318 46.6655 35.3866V40.4712H52.4516C52.7795 39.6479 53.5841 39.0653 54.5237 39.0653C55.7541 39.0653 56.753 40.0643 56.753 41.2948C56.753 42.5251 55.7541 43.524 54.5237 43.524C53.5841 43.524 52.7795 42.9416 52.4516 42.1183H46.6655V47.0532C47.4888 47.3811 48.0714 48.1857 48.0714 49.1253C48.0714 50.3557 47.0724 51.3546 45.8419 51.3546C44.6116 51.3546 43.6126 50.3557 43.6126 49.1253C43.6126 48.1857 44.1951 47.3811 45.0184 47.0532V41.2948ZM38.7239 14.418C38.3878 15.3356 37.5063 15.9911 36.4728 15.9911C35.1501 15.9911 34.0762 14.9172 34.0762 13.5945C34.0762 12.2718 35.1501 11.1979 36.4728 11.1979C37.5063 11.1979 38.3878 11.8535 38.7239 12.771H42.4243C42.8791 12.771 43.2478 13.1397 43.2478 13.5945V24.9682C43.2478 25.423 42.8791 25.7917 42.4243 25.7917H38.3924V24.1446H41.6008V14.418H38.7239ZM30.125 5.94699V16.4673C29.1166 16.2332 28.067 16.1093 26.9894 16.1093C19.3361 16.1093 13.0968 22.3488 13.0968 30.0019C13.0968 37.6518 19.3361 43.8945 26.9894 43.8945C28.067 43.8945 29.1166 43.7706 30.125 43.5364V54.0541C29.9099 54.1624 29.6668 54.2232 29.4095 54.2232H24.5657C23.6875 54.2232 22.975 53.5137 22.975 52.6325C22.975 47.8575 17.1985 45.4656 13.8225 48.8417C13.2017 49.4625 12.1946 49.4625 11.5738 48.8417L8.1463 45.417C7.52547 44.7962 7.52547 43.7862 8.1463 43.1653C11.5195 39.7922 9.12759 34.0129 4.35535 34.0129C3.477 34.0129 2.76465 33.3005 2.76465 32.4222V27.5784C2.76465 26.7001 3.477 25.9877 4.35535 25.9877C9.12759 25.9877 11.5195 20.2084 8.1463 16.8352C7.52547 16.2144 7.52547 15.2073 8.1463 14.5864L11.5738 11.1589C12.1946 10.538 13.2017 10.538 13.8225 11.1589C17.1957 14.5321 22.975 12.1403 22.975 7.36805C22.975 6.4897 23.6875 5.77734 24.5657 5.77734H29.4095C29.6668 5.77734 29.9099 5.8384 30.125 5.94699ZM35.0335 22.1257C35.9789 22.1257 36.7454 22.8921 36.7454 23.8376V36.163C36.7454 37.1085 35.9789 37.8749 35.0335 37.8749H22.7079C21.7625 37.8749 20.9961 37.1085 20.9961 36.163V23.8376C20.9961 22.8921 21.7625 22.1257 22.7079 22.1257H35.0335Z" fill="#39BCA9"/>
</svg>
