<svg width="81" height="74" viewBox="0 0 81 74" fill="none" xmlns="http://www.w3.org/2000/svg">
<circle cx="50.8955" cy="42" r="30" fill="#F4F4F4"/>
<path fill-rule="evenodd" clip-rule="evenodd" d="M8.34316 29.0281C8.34316 31.1316 10.0541 32.8438 12.1588 32.8438C14.2623 32.8438 15.9744 31.1328 15.9744 29.0281C15.9744 28.2969 15.767 27.6137 15.4084 27.0324L22.4033 20.6938C23.0443 21.1813 23.8424 21.4719 24.7084 21.4719C25.8404 21.4719 26.8588 20.975 27.5584 20.1898L33.6826 23.8707C33.5279 24.2844 33.4436 24.732 33.4436 25.1996C33.4436 27.3031 35.1545 29.0152 37.2592 29.0152C39.3627 29.0152 41.0748 27.3043 41.0748 25.1996C41.0748 24.4438 40.8533 23.7395 40.4736 23.1465L47.5588 16.4938C48.1904 16.9566 48.9686 17.2309 49.81 17.2309C51.9135 17.2309 53.6256 15.5199 53.6256 13.4152C53.6256 11.3117 51.9135 9.59961 49.81 9.59961C47.7064 9.59961 45.9943 11.3105 45.9943 13.4152C45.9943 14.1711 46.2158 14.8754 46.5955 15.4684L39.5104 22.1211C38.8787 21.6582 38.1006 21.384 37.2592 21.384C36.1271 21.384 35.1088 21.8809 34.4092 22.666L28.285 18.9852C28.4396 18.5715 28.524 18.1238 28.524 17.6563C28.524 15.5527 26.8119 13.8406 24.7084 13.8406C22.6049 13.8406 20.8928 15.5516 20.8928 17.6563C20.8928 18.3875 21.1002 19.0719 21.4588 19.652L14.4639 25.9895C13.8229 25.502 13.0236 25.2113 12.1588 25.2113C10.0553 25.2125 8.34316 26.9246 8.34316 29.0281ZM16.0799 37.1164C16.4678 37.1164 16.783 37.4316 16.783 37.8195V49.9531H20.083V29.0715C20.083 28.6836 20.3982 28.3684 20.7861 28.3684H28.6295C29.0186 28.3684 29.3326 28.6836 29.3326 29.0715V49.9531H32.6326V34.6039C32.6326 34.216 32.9479 33.9008 33.3357 33.9008H41.1791C41.567 33.9008 41.8822 34.216 41.8822 34.6039V49.9531H45.1822V24.6547C45.1822 24.2656 45.4975 23.9516 45.8853 23.9516H53.7287C54.1166 23.9516 54.4318 24.2668 54.4318 24.6547V49.952H58.5205C58.9096 49.952 59.2236 50.2672 59.2236 50.6551C59.2236 51.043 58.9096 51.3582 58.5205 51.3582H3.44238C3.05449 51.3582 2.73926 51.043 2.73926 50.6551C2.73926 50.2672 3.05449 49.952 3.44238 49.952H7.53223V37.8195C7.53223 37.4316 7.84746 37.1164 8.23535 37.1164H16.0799Z" fill="#39BCA9"/>
</svg>
