<svg width="81" height="74" viewBox="0 0 81 74" fill="none" xmlns="http://www.w3.org/2000/svg">
<circle cx="45.79" cy="42" r="30" fill="#F4F4F4"/>
<path d="M49.7501 3.75H23.5002C22.0088 3.75164 20.579 4.3448 19.5245 5.39933C18.4699 6.45387 17.8768 7.88366 17.8752 9.375V43.2188C17.8768 44.7101 18.4699 46.1399 19.5245 47.1944C20.579 48.249 22.0088 48.8421 23.5002 48.8438H49.7501C51.2415 48.8421 52.6713 48.249 53.7258 47.1944C54.7804 46.1399 55.3735 44.7101 55.3751 43.2188V9.375C55.3735 7.88366 54.7804 6.45387 53.7258 5.39933C52.6713 4.3448 51.2415 3.75164 49.7501 3.75ZM46.0001 39.375H27.2502C26.7529 39.375 26.276 39.1775 25.9243 38.8258C25.5727 38.4742 25.3752 37.9973 25.3752 37.5C25.3752 37.0027 25.5727 36.5258 25.9243 36.1742C26.276 35.8225 26.7529 35.625 27.2502 35.625H46.0001C46.4974 35.625 46.9743 35.8225 47.326 36.1742C47.6776 36.5258 47.8751 37.0027 47.8751 37.5C47.8751 37.9973 47.6776 38.4742 47.326 38.8258C46.9743 39.1775 46.4974 39.375 46.0001 39.375ZM46.0001 31.875H27.2502C26.7529 31.875 26.276 31.6775 25.9243 31.3258C25.5727 30.9742 25.3752 30.4973 25.3752 30C25.3752 29.5027 25.5727 29.0258 25.9243 28.6742C26.276 28.3225 26.7529 28.125 27.2502 28.125H46.0001C46.4974 28.125 46.9743 28.3225 47.326 28.6742C47.6776 29.0258 47.8751 29.5027 47.8751 30C47.8751 30.4973 47.6776 30.9742 47.326 31.3258C46.9743 31.6775 46.4974 31.875 46.0001 31.875ZM46.0001 24.375H27.2502C26.7529 24.375 26.276 24.1775 25.9243 23.8258C25.5727 23.4742 25.3752 22.9973 25.3752 22.5C25.3752 22.0027 25.5727 21.5258 25.9243 21.1742C26.276 20.8225 26.7529 20.625 27.2502 20.625H46.0001C46.4974 20.625 46.9743 20.8225 47.326 21.1742C47.6776 21.5258 47.8751 22.0027 47.8751 22.5C47.8751 22.9973 47.6776 23.4742 47.326 23.8258C46.9743 24.1775 46.4974 24.375 46.0001 24.375ZM46.0001 16.875H27.2502C26.7529 16.875 26.276 16.6775 25.9243 16.3258C25.5727 15.9742 25.3752 15.4973 25.3752 15C25.3752 14.5027 25.5727 14.0258 25.9243 13.6742C26.276 13.3225 26.7529 13.125 27.2502 13.125H46.0001C46.4974 13.125 46.9743 13.3225 47.326 13.6742C47.6776 14.0258 47.8751 14.5027 47.8751 15C47.8751 15.4973 47.6776 15.9742 47.326 16.3258C46.9743 16.6775 46.4974 16.875 46.0001 16.875ZM45.942 52.5938C44.2279 53.1069 20.5463 55.8977 19.0324 56.2028C17.5551 56.3851 16.0653 55.9787 14.8852 55.0714C13.7052 54.1641 12.9296 52.8288 12.7262 51.3542L8.34003 17.7951C8.24725 16.9827 8.32806 16.16 8.57711 15.3812C8.82615 14.6025 9.23775 13.8855 9.78466 13.2778C10.3316 12.67 11.0013 12.1854 11.7496 11.8559C12.4979 11.5264 13.3076 11.3595 14.1252 11.3664V43.2188C14.1281 45.7043 15.1167 48.0871 16.8743 49.8446C18.6318 51.6022 21.0146 52.5908 23.5002 52.5938H45.942Z" fill="#39BCA9"/>
</svg>
