<svg width="40" height="40" viewBox="0 0 40 40" fill="none" xmlns="http://www.w3.org/2000/svg">
<rect width="40" height="40" rx="20" fill="#39BCA9"/>
<g clip-path="url(#clip0_1103_7469)">
<path d="M17.3637 14.2874C17.5907 14.2874 17.6803 14.461 17.7023 14.5142C17.7243 14.5674 17.7837 14.7534 17.6232 14.914C17.4414 15.0958 17.4414 15.3917 17.6232 15.5735L18.0338 15.9841C18.2157 16.1659 18.5115 16.166 18.6933 15.9841C18.8542 15.8233 19.0402 15.8825 19.0933 15.9045C19.1465 15.9266 19.3199 16.0161 19.3199 16.2436C19.3199 16.5008 19.529 16.71 19.7862 16.71H20.3669C20.624 16.71 20.8332 16.5008 20.8332 16.2436C20.8332 16.0166 21.0068 15.927 21.06 15.905C21.1132 15.883 21.2992 15.8236 21.4598 15.9841C21.6416 16.1659 21.9375 16.1659 22.1193 15.9841L22.5299 15.5735C22.7117 15.3917 22.7117 15.0958 22.5299 14.914C22.3693 14.7534 22.4288 14.5674 22.4508 14.5142C22.4728 14.461 22.5623 14.2874 22.7894 14.2874C23.0465 14.2874 23.2557 14.0783 23.2557 13.8211V13.2404C23.2557 12.9833 23.0465 12.7741 22.7894 12.7741C22.5623 12.7741 22.4728 12.6005 22.4508 12.5473C22.4288 12.4941 22.3693 12.3081 22.5299 12.1475C22.7117 11.9657 22.7117 11.6699 22.5299 11.4881L22.1193 11.0774C21.9375 10.8956 21.6416 10.8956 21.4598 11.0774C21.2992 11.238 21.1132 11.1785 21.06 11.1565C21.0068 11.1344 20.8332 11.045 20.8332 10.8179C20.8332 10.5607 20.624 10.3516 20.3669 10.3516H19.7862C19.529 10.3516 19.3199 10.5607 19.3199 10.8179C19.3199 11.045 19.1463 11.1345 19.0931 11.1565C19.0399 11.1785 18.8539 11.238 18.6933 11.0774C18.5115 10.8956 18.2157 10.8956 18.0338 11.0774L17.6232 11.4881C17.4414 11.6699 17.4414 11.9657 17.6232 12.1475C17.7837 12.3081 17.7243 12.4941 17.7023 12.5473C17.6803 12.6005 17.5907 12.7741 17.3637 12.7741C17.1065 12.7741 16.8974 12.9833 16.8974 13.2404V13.8211C16.8973 14.0783 17.1065 14.2874 17.3637 14.2874ZM17.4485 13.3216C17.7899 13.2916 18.0776 13.0815 18.2115 12.7582C18.3454 12.435 18.2905 12.0829 18.0703 11.8204L18.3662 11.5245C18.6288 11.7447 18.9808 11.7996 19.3041 11.6657C19.6274 11.5318 19.8375 11.2441 19.8674 10.9027H20.2857C20.3157 11.2441 20.5258 11.5318 20.8491 11.6657C21.1724 11.7996 21.5244 11.7447 21.787 11.5245L22.0828 11.8203C21.8626 12.0829 21.8077 12.4349 21.9417 12.7582C22.0756 13.0815 22.3633 13.2916 22.7046 13.3216V13.7399C22.3633 13.7699 22.0755 13.98 21.9417 14.3033C21.8078 14.6266 21.8627 14.9786 22.0829 15.2412L21.787 15.537C21.5244 15.3168 21.1724 15.2619 20.8491 15.3958C20.5258 15.5297 20.3158 15.8174 20.2858 16.1588H19.8675C19.8375 15.8171 19.6275 15.5292 19.3043 15.3953C18.9811 15.2615 18.629 15.3166 18.3663 15.537L18.0704 15.2411C18.2906 14.9785 18.3455 14.6266 18.2116 14.3032C18.0777 13.9799 17.79 13.7698 17.4486 13.7399V13.3216H17.4485ZM20.0766 15.2253C21.011 15.2253 21.7712 14.4651 21.7712 13.5307C21.7712 12.5963 21.011 11.8362 20.0766 11.8362C19.1422 11.8362 18.382 12.5963 18.382 13.5307C18.382 14.4651 19.1422 15.2253 20.0766 15.2253ZM20.0766 12.3874C20.707 12.3874 21.2199 12.9003 21.2199 13.5307C21.2199 14.1612 20.707 14.6741 20.0766 14.6741C19.4461 14.6741 18.9332 14.1612 18.9332 13.5307C18.9332 12.9003 19.4461 12.3874 20.0766 12.3874ZM15.9818 18.0487V19.8205C15.9818 19.9727 16.1052 20.0961 16.2574 20.0961H23.8957C24.0479 20.0961 24.1713 19.9727 24.1713 19.8205V18.0487C24.1713 17.8965 24.0479 17.7731 23.8957 17.7731H16.2574C16.1052 17.7731 15.9818 17.8965 15.9818 18.0487ZM16.533 18.3243H23.6201V19.5449H16.533V18.3243ZM23.8957 21.1592H16.2574C16.1052 21.1592 15.9818 21.2826 15.9818 21.4348V23.2066C15.9818 23.3588 16.1052 23.4822 16.2574 23.4822H23.8957C24.0479 23.4822 24.1713 23.3588 24.1713 23.2066V21.4348C24.1713 21.2826 24.0479 21.1592 23.8957 21.1592ZM23.6201 22.931H16.533V21.7104H23.6201V22.931ZM29.8016 18.9346V22.3207C29.8016 22.4729 29.6782 22.5963 29.526 22.5963H25.7423L26.1139 22.9679C26.2215 23.0756 26.2215 23.2501 26.1139 23.3577C26.0601 23.4115 25.9896 23.4384 25.919 23.4384C25.8484 23.4384 25.7779 23.4115 25.7241 23.3577L24.882 22.5156C24.7743 22.4079 24.7743 22.2334 24.882 22.1258L25.7241 21.2837C25.8317 21.1761 26.0063 21.1761 26.1139 21.2837C26.2215 21.3913 26.2215 21.5658 26.1139 21.6734L25.7422 22.0451H29.2503V19.2102H25.0769C24.9247 19.2102 24.8013 19.0868 24.8013 18.9346C24.8013 18.7824 24.9247 18.659 25.0769 18.659H29.526C29.6782 18.659 29.8016 18.7824 29.8016 18.9346ZM10.9028 22.5963V25.4312H14.4108L14.0392 25.0596C13.9315 24.952 13.9315 24.7774 14.0392 24.6698C14.1468 24.5622 14.3213 24.5622 14.4289 24.6698L15.2711 25.512C15.3228 25.5636 15.3518 25.6337 15.3518 25.7069C15.3518 25.78 15.3228 25.8501 15.2711 25.9018L14.4289 26.7439C14.3751 26.7977 14.3046 26.8246 14.234 26.8246C14.1635 26.8246 14.093 26.7977 14.0391 26.7439C13.9315 26.6362 13.9315 26.4617 14.0391 26.3541L14.4108 25.9825H10.6272C10.475 25.9825 10.3516 25.8591 10.3516 25.7069V22.3208C10.3516 22.1686 10.475 22.0452 10.6272 22.0452H15.0762C15.2284 22.0452 15.3518 22.1686 15.3518 22.3208C15.3518 22.473 15.2284 22.5964 15.0762 22.5964H10.9028V22.5963ZM15.2711 18.7397C15.3228 18.7914 15.3518 18.8615 15.3518 18.9346C15.3518 19.0077 15.3228 19.0778 15.2711 19.1295L14.429 19.9717C14.3752 20.0255 14.3046 20.0524 14.2341 20.0524C14.1635 20.0524 14.093 20.0255 14.0392 19.9717C13.9315 19.864 13.9315 19.6895 14.0392 19.5819L14.4108 19.2103H10.6272C10.475 19.2103 10.3516 19.0869 10.3516 18.9347V13.5308C10.3516 13.3786 10.475 13.2552 10.6272 13.2552H15.9917C16.1439 13.2552 16.2673 13.3786 16.2673 13.5308C16.2673 13.683 16.1439 13.8064 15.9917 13.8064H10.9028V18.659H14.4108L14.0392 18.2874C13.9315 18.1798 13.9315 18.0052 14.0392 17.8976C14.1468 17.79 14.3213 17.79 14.4289 17.8976L15.2711 18.7397ZM24.7881 26.8845C24.6805 26.7769 24.5059 26.7769 24.3983 26.8845C24.2907 26.9921 24.2907 27.1667 24.3983 27.2743L24.77 27.6459H20.3522V26.8683H23.8957C24.0479 26.8683 24.1713 26.7449 24.1713 26.5927V24.8209C24.1713 24.6687 24.0479 24.5453 23.8957 24.5453H16.2574C16.1052 24.5453 15.9818 24.6687 15.9818 24.8209V26.5927C15.9818 26.7449 16.1052 26.8683 16.2574 26.8683H19.801V27.9215C19.801 28.0737 19.9243 28.1971 20.0766 28.1971H24.77L24.3983 28.5688C24.2907 28.6764 24.2907 28.8509 24.3983 28.9585C24.4521 29.0123 24.5227 29.0392 24.5932 29.0392C24.6638 29.0392 24.7343 29.0123 24.7881 28.9585L25.6302 28.1164C25.7379 28.0087 25.7379 27.8342 25.6302 27.7266L24.7881 26.8845ZM16.533 25.0965H23.6201V26.3171H16.533V25.0965ZM28.929 27.3122C29.031 27.4252 29.0221 27.5994 28.9091 27.7014L27.7899 28.7117C27.739 28.7576 27.6731 28.7827 27.6052 28.7827C27.5953 28.7827 27.5854 28.7822 27.5754 28.7811C27.4973 28.7726 27.4265 28.7312 27.3809 28.6672L26.8944 27.9858C26.8059 27.862 26.8347 27.6898 26.9585 27.6014C27.0824 27.5129 27.2545 27.5416 27.3429 27.6655L27.6499 28.0954L28.5397 27.2923C28.6527 27.1902 28.827 27.1992 28.929 27.3122ZM29.1322 26.0415H26.7108C26.3417 26.0415 26.0415 26.3417 26.0415 26.7108V29.1322C26.0415 29.5013 26.3417 29.8016 26.7108 29.8016H29.1322C29.5013 29.8016 29.8016 29.5013 29.8016 29.1322V26.7108C29.8016 26.3417 29.5013 26.0415 29.1322 26.0415ZM29.2503 29.1322C29.2503 29.1974 29.1974 29.2503 29.1322 29.2503H26.7108C26.6457 29.2503 26.5927 29.1974 26.5927 29.1322V26.7108C26.5927 26.6457 26.6457 26.5927 26.7108 26.5927H29.1322C29.1974 26.5927 29.2503 26.6457 29.2503 26.7108V29.1322Z" fill="white"/>
</g>
<defs>
<clipPath id="clip0_1103_7469">
<rect width="20" height="20" fill="white" transform="translate(10 10)"/>
</clipPath>
</defs>
</svg>
