<svg width="40" height="40" viewBox="0 0 40 40" fill="none" xmlns="http://www.w3.org/2000/svg">
<rect width="40" height="40" rx="20" fill="#39BCA9"/>
<g clip-path="url(#clip0_1103_7490)">
<path d="M28.6673 14C27.932 14 27.334 14.598 27.334 15.3333C27.334 16.0686 27.932 16.6666 28.6673 16.6666C29.4026 16.6666 30.0006 16.0687 30.0006 15.3333C30.0006 14.598 29.4026 14 28.6673 14ZM28.6673 16C28.2996 16 28.0006 15.701 28.0006 15.3333C28.0006 14.9657 28.2996 14.6666 28.6673 14.6666C29.035 14.6666 29.334 14.9656 29.334 15.3333C29.3339 15.701 29.035 16 28.6673 16Z" fill="white"/>
<path d="M11.3333 25C10.598 25 10 25.598 10 26.3333C10 27.0686 10.598 27.6666 11.3333 27.6666C12.0687 27.6666 12.6666 27.0686 12.6666 26.3333C12.6666 25.598 12.0687 25 11.3333 25ZM11.3333 27C10.9657 27 10.6666 26.701 10.6666 26.3333C10.6666 25.9656 10.9656 25.6666 11.3333 25.6666C11.701 25.6666 12 25.9656 12 26.3333C12 26.701 11.701 27 11.3333 27Z" fill="white"/>
<path d="M28.0199 14.4197L25.1442 13.0314C24.9782 12.951 24.7792 13.021 24.6992 13.1867C24.6192 13.3524 24.6888 13.5517 24.8545 13.6317L27.7302 15.0201C27.7769 15.0427 27.8262 15.0534 27.8749 15.0534C27.9988 15.0534 28.1179 14.984 28.1752 14.8647C28.2552 14.699 28.1855 14.4997 28.0199 14.4197Z" fill="white"/>
<path d="M24.9993 27.332C24.264 27.332 23.666 27.93 23.666 28.6654C23.666 29.4007 24.264 29.9987 24.9993 29.9987C25.7347 29.9987 26.3327 29.4007 26.3327 28.6654C26.3327 27.9301 25.7347 27.332 24.9993 27.332ZM24.9993 29.332C24.6317 29.332 24.3327 29.033 24.3327 28.6654C24.3327 28.2977 24.6317 27.9987 24.9993 27.9987C25.367 27.9987 25.666 28.2977 25.666 28.6654C25.666 29.0331 25.367 29.332 24.9993 29.332Z" fill="white"/>
<path d="M24.3529 27.7576L21.4772 26.3693C21.3112 26.289 21.1122 26.3587 21.0322 26.5247C20.9522 26.6903 21.0219 26.8897 21.1876 26.9697L24.0632 28.358C24.1099 28.3807 24.1592 28.3913 24.2079 28.3913C24.3319 28.3913 24.4509 28.322 24.5082 28.2026C24.5882 28.0369 24.5185 27.8376 24.3529 27.7576Z" fill="white"/>
<path d="M19.9993 19C19.264 19 18.666 19.598 18.666 20.3333C18.666 21.0687 19.264 21.6666 19.9993 21.6666C20.7347 21.6666 21.3327 21.0686 21.3327 20.3333C21.3327 19.598 20.7347 19 19.9993 19ZM19.9993 21C19.6317 21 19.3327 20.701 19.3327 20.3333C19.3327 19.9657 19.6316 19.6666 19.9993 19.6666C20.367 19.6666 20.666 19.9656 20.666 20.3333C20.666 20.701 20.367 21 19.9993 21Z" fill="white"/>
<path d="M19.4134 19.4598L17.2044 17.7381C17.0591 17.6258 16.8498 17.6508 16.7364 17.7961C16.6234 17.9415 16.6491 18.1508 16.7944 18.2641L19.0034 19.9858C19.0644 20.0331 19.1364 20.0561 19.2081 20.0561C19.3074 20.0561 19.4055 20.0122 19.4714 19.9278C19.5844 19.7824 19.5588 19.5731 19.4134 19.4598Z" fill="white"/>
<path d="M26.0007 18.668C23.979 18.668 22.334 20.313 22.334 22.3346C22.334 24.3563 23.979 26.0013 26.0007 26.0013C28.0223 26.0013 29.6673 24.3563 29.6673 22.3346C29.6673 20.313 28.0223 18.668 26.0007 18.668ZM26.0007 25.3346C24.3463 25.3346 23.0007 23.9889 23.0007 22.3346C23.0007 20.6803 24.3463 19.3346 26.0007 19.3346C27.655 19.3346 29.0007 20.6803 29.0007 22.3346C29.0007 23.9889 27.655 25.3346 26.0007 25.3346Z" fill="white"/>
<path d="M25.9993 20C25.264 20 24.666 20.598 24.666 21.3333C24.666 22.0687 25.264 22.6666 25.9993 22.6666C26.7347 22.6666 27.3327 22.0686 27.3327 21.3333C27.3327 20.598 26.7347 20 25.9993 20ZM25.9993 22C25.6317 22 25.3327 21.701 25.3327 21.3333C25.3327 20.9657 25.6316 20.6666 25.9993 20.6666C26.367 20.6666 26.666 20.9656 26.666 21.3333C26.666 21.701 26.367 22 25.9993 22Z" fill="white"/>
<path d="M26.967 23.332H25.033C24.4634 23.332 24 23.783 24 24.337V25.2157C24 25.3347 24.0633 25.4447 24.1663 25.5044C24.725 25.8277 25.359 25.9987 26 25.9987C26.641 25.9987 27.275 25.8277 27.8337 25.5044C27.9367 25.445 28 25.3347 28 25.2161V24.3374C28 23.783 27.5367 23.332 26.967 23.332ZM27.3333 25.017C26.5037 25.4304 25.4963 25.4304 24.6666 25.017V24.3374C24.6666 24.1507 24.831 23.9987 25.033 23.9987H26.967C27.1689 23.9987 27.3333 24.1507 27.3333 24.3374V25.017H27.3333Z" fill="white"/>
<path d="M18.0007 22.668C15.979 22.668 14.334 24.313 14.334 26.3346C14.334 28.3563 15.979 30.0013 18.0007 30.0013C20.0223 30.0013 21.6673 28.3563 21.6673 26.3346C21.6673 24.3129 20.0223 22.668 18.0007 22.668ZM18.0007 29.3346C16.3463 29.3346 15.0007 27.9889 15.0007 26.3346C15.0007 24.6803 16.3463 23.3346 18.0007 23.3346C19.655 23.3346 21.0007 24.6803 21.0007 26.3346C21.0007 27.9889 19.655 29.3346 18.0007 29.3346Z" fill="white"/>
<path d="M17.9993 24C17.264 24 16.666 24.598 16.666 25.3333C16.666 26.0687 17.264 26.6666 17.9993 26.6666C18.7346 26.6666 19.3327 26.0686 19.3327 25.3333C19.3327 24.598 18.7347 24 17.9993 24ZM17.9993 26C17.6317 26 17.3327 25.701 17.3327 25.3333C17.3327 24.9657 17.6316 24.6666 17.9993 24.6666C18.367 24.6666 18.666 24.9656 18.666 25.3333C18.666 25.701 18.367 26 17.9993 26Z" fill="white"/>
<path d="M18.967 27.332H17.033C16.4634 27.332 16 27.783 16 28.337V29.2157C16 29.3347 16.0633 29.4447 16.1663 29.5044C16.725 29.8277 17.359 29.9987 18 29.9987C18.641 29.9987 19.275 29.8277 19.8337 29.5044C19.9367 29.445 20 29.3347 20 29.2161V28.3374C20 27.783 19.5367 27.332 18.967 27.332ZM19.3333 29.017C18.5036 29.4304 17.4963 29.4304 16.6666 29.017V28.3374C16.6666 28.1507 16.831 27.9987 17.033 27.9987H18.967C19.1689 27.9987 19.3333 28.1507 19.3333 28.3374L19.3333 29.017Z" fill="white"/>
<path d="M13.6667 14.332C11.645 14.332 10 15.977 10 17.9987C10 20.0204 11.645 21.6654 13.6667 21.6654C15.6884 21.6654 17.3334 20.0204 17.3334 17.9987C17.3333 15.977 15.6883 14.332 13.6667 14.332ZM13.6667 20.9987C12.0123 20.9987 10.6667 19.653 10.6667 17.9987C10.6667 16.3444 12.0123 14.9987 13.6667 14.9987C15.321 14.9987 16.6667 16.3444 16.6667 17.9987C16.6667 19.653 15.321 20.9987 13.6667 20.9987Z" fill="white"/>
<path d="M13.6673 15.668C12.932 15.668 12.334 16.266 12.334 17.0013C12.334 17.7366 12.932 18.3346 13.6673 18.3346C14.4027 18.3346 15.0006 17.7366 15.0006 17.0013C15.0006 16.266 14.4026 15.668 13.6673 15.668ZM13.6673 17.668C13.2996 17.668 13.0006 17.369 13.0006 17.0013C13.0006 16.6336 13.2996 16.3346 13.6673 16.3346C14.035 16.3346 14.334 16.6336 14.334 17.0013C14.334 17.369 14.035 17.668 13.6673 17.668Z" fill="white"/>
<path d="M14.633 19H12.699C12.1294 19 11.666 19.451 11.666 20.005V20.8837C11.666 21.0027 11.7293 21.1127 11.8323 21.1723C12.391 21.4957 13.025 21.6667 13.666 21.6667C14.307 21.6667 14.941 21.4957 15.4997 21.1723C15.6027 21.113 15.666 21.0027 15.666 20.884V20.0054C15.666 19.451 15.2027 19 14.633 19ZM14.9993 20.685C14.1697 21.0983 13.1623 21.0983 12.3327 20.685V20.0054C12.3327 19.8187 12.497 19.6667 12.699 19.6667H14.633C14.835 19.6667 14.9993 19.8187 14.9993 20.0054L14.9993 20.685Z" fill="white"/>
<path d="M21.6667 10C19.645 10 18 11.645 18 13.6667C18 15.6884 19.645 17.3334 21.6667 17.3334C23.6884 17.3334 25.3334 15.6884 25.3334 13.6667C25.3333 11.645 23.6883 10 21.6667 10ZM21.6667 16.6667C20.0123 16.6667 18.6667 15.321 18.6667 13.6667C18.6667 12.0123 20.0123 10.6667 21.6667 10.6667C23.321 10.6667 24.6667 12.0123 24.6667 13.6667C24.6667 15.321 23.321 16.6667 21.6667 16.6667Z" fill="white"/>
<path d="M21.6673 11.332C20.932 11.332 20.334 11.93 20.334 12.6654C20.334 13.4007 20.932 13.9987 21.6673 13.9987C22.4026 13.9987 23.0006 13.4007 23.0006 12.6654C23.0006 11.9301 22.4026 11.332 21.6673 11.332ZM21.6673 13.332C21.2996 13.332 21.0006 13.033 21.0006 12.6654C21.0006 12.2977 21.2996 11.9987 21.6673 11.9987C22.035 11.9987 22.334 12.2977 22.334 12.6654C22.3339 13.033 22.035 13.332 21.6673 13.332Z" fill="white"/>
<path d="M22.633 14.668H20.699C20.1294 14.668 19.666 15.119 19.666 15.673V16.5516C19.666 16.6706 19.7293 16.7806 19.8323 16.8403C20.391 17.1636 21.025 17.3346 21.666 17.3346C22.307 17.3346 22.941 17.1636 23.4997 16.8403C23.6027 16.781 23.666 16.6706 23.666 16.552V15.6733C23.666 15.1189 23.2027 14.668 22.633 14.668ZM22.9993 16.353C22.1697 16.7663 21.1623 16.7663 20.3327 16.353V15.6733C20.3327 15.4866 20.497 15.3346 20.699 15.3346H22.633C22.835 15.3346 22.9993 15.4866 22.9993 15.6733L22.9993 16.353Z" fill="white"/>
<path d="M18.5872 13.4483C18.4675 13.309 18.2572 13.2923 18.1172 13.412L15.8072 15.3887C15.6672 15.5083 15.6508 15.7187 15.7705 15.8587C15.8365 15.9357 15.9298 15.9754 16.0238 15.9754C16.1005 15.9754 16.1775 15.949 16.2405 15.895L18.5505 13.9183C18.6905 13.7987 18.7068 13.5883 18.5872 13.4483Z" fill="white"/>
<path d="M25.934 18.8019L23.934 16.1352C23.8236 15.9876 23.6146 15.9586 23.4673 16.0686C23.32 16.1789 23.2903 16.3879 23.4006 16.5349L25.4006 19.2016C25.4663 19.2889 25.5663 19.3349 25.6676 19.3349C25.737 19.3349 25.8073 19.3132 25.8673 19.2682C26.0146 19.1579 26.0443 18.9489 25.934 18.8019Z" fill="white"/>
<path d="M23.1983 23.4341C23.088 23.2868 22.879 23.2571 22.7316 23.3674L20.8696 24.7637C20.7223 24.8741 20.6927 25.0831 20.803 25.2301C20.8686 25.3174 20.9686 25.3634 21.07 25.3634C21.1396 25.3634 21.2096 25.3414 21.2696 25.2967L23.1316 23.9004C23.279 23.7901 23.3087 23.5811 23.1983 23.4341Z" fill="white"/>
<path d="M14.6667 26H12.3333C12.1493 26 12 26.149 12 26.3333C12 26.5177 12.1493 26.6666 12.3333 26.6666H14.6666C14.8506 26.6666 15 26.5177 15 26.3333C15 26.149 14.8507 26 14.6667 26Z" fill="white"/>
<path d="M13.6673 10C12.932 10 12.334 10.598 12.334 11.3333C12.334 12.0687 12.932 12.6666 13.6673 12.6666C14.4027 12.6666 15.0006 12.0686 15.0006 11.3333C15.0007 10.598 14.4027 10 13.6673 10ZM13.6673 12C13.2997 12 13.0007 11.701 13.0007 11.3333C13.0007 10.9657 13.2996 10.6666 13.6673 10.6666C14.035 10.6666 14.334 10.9656 14.334 11.3333C14.334 11.701 14.035 12 13.6673 12Z" fill="white"/>
<path d="M13.6673 12C13.4833 12 13.334 12.149 13.334 12.3333V14.6666C13.334 14.851 13.4833 15 13.6673 15C13.8513 15 14.0006 14.851 14.0006 14.6666V12.3333C14.0006 12.149 13.8513 12 13.6673 12Z" fill="white"/>
</g>
<defs>
<clipPath id="clip0_1103_7490">
<rect width="20" height="20" fill="white" transform="translate(10 10)"/>
</clipPath>
</defs>
</svg>
