<svg width="81" height="74" viewBox="0 0 81 74" fill="none" xmlns="http://www.w3.org/2000/svg">
<circle cx="50.8955" cy="42" r="30" fill="#F4F4F4"/>
<path d="M44.1138 40.1324C45.5037 37.8286 46.3045 35.1312 46.3045 32.2499C46.3045 23.8109 39.4388 16.9453 30.9999 16.9453C22.561 16.9453 15.6953 23.811 15.6953 32.2499C15.6953 35.1311 16.4961 37.8286 17.886 40.1324C20.2039 37.5977 23.0821 35.8991 26.1516 35.0365C24.6331 33.693 23.6732 31.732 23.6732 29.55C23.6732 25.51 26.96 22.2232 30.9999 22.2232C35.0398 22.2232 38.3267 25.51 38.3267 29.55C38.3267 31.7319 37.3669 33.6928 35.8486 35.0361C38.9174 35.8985 41.7954 37.5969 44.1138 40.1324Z" fill="#39BCA9"/>
<path d="M31.122 34.3698C33.725 34.3045 35.8229 32.1682 35.8229 29.5498C35.8229 26.8903 33.6593 24.7266 30.9998 24.7266C28.3404 24.7266 26.1768 26.8903 26.1768 29.5498C26.1768 32.1682 28.2745 34.3044 30.8775 34.3698C30.9589 34.3692 31.0404 34.3692 31.122 34.3698Z" fill="#39BCA9"/>
<path d="M19.3896 42.2093C25.513 49.3371 36.49 49.3333 42.6101 42.2093C36.5248 35.1003 25.4847 35.0883 19.3896 42.2093Z" fill="#39BCA9"/>
<path d="M31.0001 12.5705C34.439 12.5705 37.2267 9.78271 37.2267 6.34383C37.2267 2.90495 34.439 0.117188 31.0001 0.117188C27.5612 0.117188 24.7734 2.90495 24.7734 6.34383C24.7734 9.78271 27.5612 12.5705 31.0001 12.5705Z" fill="#39BCA9"/>
<path d="M13.9573 42.0906C12.2406 39.1171 8.42484 38.0949 5.45144 39.8115C2.47054 41.5322 1.45171 45.3372 3.17226 48.3174C4.87804 51.2717 8.68593 52.324 11.6781 50.5964C14.6514 48.8797 15.6738 45.064 13.9573 42.0906Z" fill="#39BCA9"/>
<path d="M6.14706 36.9817C3.79627 24.717 10.8988 12.4408 22.6718 8.35984C22.4774 7.55711 22.4047 6.77266 22.4394 5.96875C9.08753 10.3074 1.03709 24.1087 3.96057 37.9752C4.62303 37.5542 5.33952 37.2191 6.14706 36.9817Z" fill="#39BCA9"/>
<path d="M47.5164 51.4004C38.0328 59.5783 23.9855 59.5943 14.4832 51.4004C13.8933 51.9639 13.246 52.4267 12.5283 52.8011C23.0179 62.2276 38.9448 62.2607 49.4713 52.8011C48.7551 52.4273 48.1081 51.9656 47.5164 51.4004Z" fill="#39BCA9"/>
<path d="M55.8531 36.9813C56.6419 37.2132 57.3607 37.5432 58.0414 37.9762C60.9771 24.2036 52.924 10.2929 39.5604 5.9668C39.5953 6.76918 39.5229 7.55492 39.3281 8.35941C51.0971 12.4392 58.2061 24.7104 55.8531 36.9813Z" fill="#39BCA9"/>
<path d="M56.5488 39.8115C53.5754 38.0948 49.7596 39.1173 48.0429 42.0906C46.3263 45.064 47.3487 48.8797 50.322 50.5964C53.3081 52.3203 57.119 51.277 58.8278 48.3173C60.5487 45.3365 59.5291 41.5319 56.5488 39.8115Z" fill="#39BCA9"/>
</svg>
