<svg width="40" height="40" viewBox="0 0 40 40" fill="none" xmlns="http://www.w3.org/2000/svg">
<rect width="40" height="40" rx="20" fill="#39BCA9"/>
<g clip-path="url(#clip0_1103_7500)">
<path fill-rule="evenodd" clip-rule="evenodd" d="M21.617 13.9455C22.1498 14.0873 22.6608 14.299 23.1385 14.576L24.1172 14.1408C24.2359 14.0881 24.3747 14.1138 24.4665 14.2056L25.7945 15.5336C25.8862 15.6253 25.9121 15.764 25.8595 15.8825C25.8595 15.8825 25.4259 16.8615 25.4259 16.8614C25.7031 17.3393 25.9149 17.8507 26.0567 18.3853L27.055 18.7694C27.1761 18.8161 27.256 18.9325 27.256 19.0622V20.9407C27.256 21.0705 27.1761 21.1869 27.055 21.2335C27.055 21.2335 26.0566 21.6178 26.0566 21.6178C25.9145 22.1506 25.7016 22.6616 25.4258 23.1393L25.8595 24.1185C25.9121 24.2371 25.8862 24.3758 25.7945 24.4674L24.4665 25.7954C24.3749 25.8871 24.2362 25.913 24.1176 25.8604C24.1176 25.8604 23.1389 25.4269 23.139 25.4269C22.6623 25.704 22.15 25.9157 21.6169 26.0575L21.2326 27.0559C21.186 27.177 21.0696 27.2569 20.9398 27.2569H19.0613C18.9316 27.2569 18.8152 27.177 18.7685 27.0559L18.3843 26.0576C17.85 25.9156 17.3387 25.7026 16.8609 25.4267L15.8816 25.8604C15.7631 25.913 15.6244 25.8871 15.5327 25.7954L14.2047 24.4674C14.1129 24.3756 14.0872 24.2368 14.1399 24.1182C14.1399 24.1182 14.575 23.1396 14.575 23.1396C14.2981 22.6631 14.0863 22.151 13.9431 21.618L12.9443 21.2335C12.8232 21.1869 12.7432 21.0705 12.7432 20.9407V19.0622C12.7432 18.9325 12.8232 18.8161 12.9443 18.7694C12.9443 18.7694 13.943 18.3851 13.943 18.3851C14.0861 17.8507 14.298 17.3395 14.5751 16.8617L14.1399 15.8829C14.0872 15.7643 14.1129 15.6254 14.2047 15.5336L15.5327 14.2056C15.6245 14.1138 15.7634 14.0881 15.882 14.1408C15.882 14.1408 16.8608 14.576 16.8608 14.576C17.3385 14.299 17.8496 14.0872 18.3826 13.9454L18.7687 12.9449C18.8153 12.824 18.9316 12.7442 19.0613 12.7442H20.9398C21.0697 12.7442 21.1861 12.8242 21.2327 12.9453L21.617 13.9455ZM21.0896 14.3225L20.7243 13.3716H19.2765L18.9095 14.3229C18.8723 14.4193 18.7899 14.4913 18.6893 14.5152C18.1089 14.6531 17.5554 14.8824 17.0466 15.1959C16.9585 15.2502 16.8492 15.2575 16.7546 15.2154L15.824 14.8017L14.8008 15.8249L15.2145 16.7555C15.2566 16.8501 15.2493 16.9594 15.195 17.0475C14.8814 17.5565 14.652 18.1103 14.5122 18.6928C14.4881 18.7932 14.4162 18.8753 14.3198 18.9123L13.3707 19.2776V20.7253L14.3198 21.0906C14.4161 21.1277 14.488 21.2097 14.5121 21.31C14.6519 21.8905 14.8812 22.446 15.1947 22.9531C15.2493 23.0413 15.2567 23.1508 15.2145 23.2456L14.8008 24.1762L15.8243 25.1996L16.755 24.7873C16.8493 24.7456 16.958 24.7528 17.046 24.8067C17.5549 25.1185 18.1086 25.3498 18.691 25.4878C18.7918 25.5116 18.8743 25.5837 18.9114 25.6803L19.2767 26.6295H20.7244L21.0897 25.6803C21.1269 25.5838 21.2093 25.5118 21.31 25.4878C21.8902 25.3499 22.4454 25.1207 22.9522 24.8074C23.0403 24.7529 23.1496 24.7454 23.2443 24.7873L24.175 25.1996L25.1987 24.1759L24.7864 23.2452C24.7447 23.1509 24.7519 23.0422 24.8058 22.9542C25.1176 22.4453 25.3489 21.8915 25.4869 21.3109C25.5109 21.2102 25.5829 21.1278 25.6794 21.0906L26.6286 20.7253V19.2776L25.6794 18.9123C25.5828 18.8752 25.5107 18.7927 25.4869 18.6919C25.3489 18.1098 25.1196 17.5563 24.8062 17.0475C24.752 16.9595 24.7446 16.8504 24.7864 16.7559L25.1987 15.8252L24.1752 14.8017L23.2447 15.2154C23.1501 15.2575 23.0408 15.2502 22.9527 15.1959C22.4439 14.8824 21.8903 14.6531 21.31 14.5152C21.2092 14.4912 21.1268 14.4191 21.0896 14.3225ZM19.9996 15.2133C22.6439 15.2133 24.7869 17.3563 24.7869 20.0005C24.7869 22.6448 22.6439 24.7878 19.9996 24.7878C17.3554 24.7878 15.2123 22.6448 15.2123 20.0005C15.2123 17.3563 17.3554 15.2133 19.9996 15.2133ZM23.2867 22.5505C23.8338 21.8463 24.1595 20.9615 24.1595 20.0005C24.1595 17.7029 22.2973 15.8407 19.9996 15.8407C17.702 15.8407 15.8398 17.7029 15.8398 20.0005C15.8398 20.9615 16.1655 21.8463 16.7126 22.5505C17.0272 21.5211 17.8118 20.6968 18.816 20.3282C18.3838 19.9804 18.106 19.4474 18.106 18.8525C18.106 17.8107 18.9578 16.9589 19.9996 16.9589C21.0414 16.9589 21.8932 17.8107 21.8932 18.8525C21.8932 19.4474 21.6155 19.9804 21.1832 20.3282C22.1874 20.6968 22.972 21.5211 23.2867 22.5505ZM17.227 23.1018C17.9628 23.7602 18.9344 24.1604 19.9996 24.1604C21.0649 24.1604 22.0365 23.7602 22.7723 23.1018C22.5552 21.7661 21.3961 20.7462 19.9996 20.7462C18.6032 20.7462 17.4441 21.7661 17.227 23.1018ZM19.9996 20.1187C20.6962 20.1187 21.2658 19.5491 21.2658 18.8525C21.2658 18.1559 20.6962 17.5864 19.9996 17.5864C19.3031 17.5864 18.7335 18.1559 18.7335 18.8525C18.7335 19.5491 19.3031 20.1187 19.9996 20.1187ZM15.8109 28.0857C18.7643 29.6134 22.3979 29.4104 25.167 27.4976C25.3094 27.3991 25.505 27.4349 25.6034 27.5774C25.7018 27.7198 25.6661 27.9154 25.5236 28.0138C22.5576 30.0627 18.6638 30.2766 15.5031 28.6329L15.7055 28.9951C15.79 29.1463 15.7358 29.3376 15.5847 29.422C15.4335 29.5065 15.2422 29.4523 15.1578 29.3012L14.3798 27.9087C14.3251 27.8108 14.3268 27.6912 14.3842 27.595C14.4416 27.4987 14.546 27.4404 14.6581 27.442L16.253 27.4645C16.4261 27.4669 16.5647 27.6094 16.5623 27.7826C16.5598 27.9557 16.4173 28.0943 16.2442 28.0918L15.8109 28.0857ZM28.0638 24.2298C29.6168 21.2665 29.4155 17.6118 27.4964 14.8331C27.398 14.6906 27.4338 14.4951 27.5763 14.3967C27.7187 14.2983 27.9143 14.334 28.0127 14.4765C30.0512 17.4281 30.2766 21.3044 28.6506 24.4613L28.9748 24.2724C29.1244 24.1852 29.3166 24.2359 29.4038 24.3855C29.491 24.5351 29.4403 24.7274 29.2907 24.8145L27.9125 25.6175C27.8156 25.674 27.696 25.6744 27.5987 25.6187C27.5015 25.5631 27.4412 25.4598 27.4408 25.3477L27.4345 23.7526C27.4338 23.5795 27.5738 23.4383 27.7469 23.4376C27.9201 23.4369 28.0612 23.577 28.0619 23.7501L28.0638 24.2298ZM24.4476 11.3431L24.2637 11.032C24.1756 10.8829 24.2251 10.6904 24.3742 10.6023C24.5232 10.5142 24.7158 10.5637 24.8039 10.7128L25.6154 12.086C25.6724 12.1825 25.6736 12.302 25.6186 12.3997C25.5635 12.4973 25.4606 12.5582 25.3485 12.5593L23.7535 12.5755C23.5803 12.5773 23.4383 12.4381 23.4366 12.265C23.4349 12.0918 23.574 11.9498 23.7471 11.9481L24.2414 11.9431C21.2773 10.3839 17.6162 10.5808 14.832 12.5037C14.6895 12.6021 14.494 12.5663 14.3956 12.4239C14.2972 12.2814 14.3329 12.0858 14.4754 11.9874C17.4247 9.95051 21.2944 9.72537 24.4476 11.3431ZM11.3782 15.4831L10.9931 15.6925C10.841 15.7753 10.6504 15.7189 10.5676 15.5668C10.4849 15.4147 10.5412 15.224 10.6934 15.1413L12.0946 14.3792C12.193 14.3256 12.3126 14.3287 12.4082 14.3872C12.5038 14.4457 12.5609 14.5507 12.5581 14.6628L12.5174 16.2574C12.513 16.4305 12.3689 16.5674 12.1958 16.563C12.0227 16.5586 11.8858 16.4145 11.8902 16.2414L11.9005 15.8389C10.3879 18.7872 10.5955 22.4074 12.5026 25.1682C12.601 25.3106 12.5652 25.5062 12.4228 25.6046C12.2803 25.703 12.0847 25.6672 11.9863 25.5247C9.93281 22.5521 9.72258 18.6472 11.3782 15.4831Z" fill="white"/>
</g>
<defs>
<clipPath id="clip0_1103_7500">
<rect width="20" height="20" fill="white" transform="translate(10 10)"/>
</clipPath>
</defs>
</svg>
