<svg width="80" height="74" viewBox="0 0 80 74" fill="none" xmlns="http://www.w3.org/2000/svg">
<circle cx="44" cy="42" r="30" fill="#F4F4F4"/>
<path fill-rule="evenodd" clip-rule="evenodd" d="M36.1776 35.4831C35.771 35.3735 34.6799 34.1194 34.2733 32.7105C34.0951 32.0917 34.1373 31.6867 34.2522 31.572C34.9926 30.8246 35.4069 29.8143 35.4044 28.7622C35.4019 27.7102 34.9829 26.7019 34.239 25.9579C33.495 25.2139 32.4867 24.7949 31.4346 24.7924C30.3825 24.7899 29.3723 25.2042 28.6248 25.9446C28.4186 26.1501 27.9721 26.203 27.399 26.0887C26.0514 25.8208 24.726 24.8276 24.5127 24.4408C24.4908 23.3948 24.0578 22.3994 23.3074 21.6703C22.5571 20.9411 21.5497 20.5368 20.5035 20.5448C19.4572 20.5528 18.4562 20.9726 17.7171 21.7132C16.9781 22.4538 16.5604 23.4556 16.5545 24.5019C16.4458 24.9081 15.1915 25.9997 13.783 26.4057C13.1643 26.5841 12.7588 26.542 12.644 26.4274C11.8987 25.6844 10.8894 25.267 9.83703 25.2663C8.78467 25.2657 7.77491 25.682 7.02875 26.4241C6.28259 27.1662 5.86079 28.1737 5.85566 29.2261C5.85053 30.2784 6.26249 31.2899 7.00138 32.0393C7.21009 32.4008 7.0963 34.0549 6.38849 35.3389C6.07571 35.9069 5.7579 36.1658 5.5963 36.1658C4.54095 36.1628 3.52764 36.5793 2.77931 37.3234C2.03097 38.0676 1.6089 39.0785 1.60595 40.1339C1.603 41.1892 2.0194 42.2025 2.76356 42.9509C3.50772 43.6992 4.51868 44.1213 5.57403 44.1242C5.98079 44.2343 7.07169 45.4893 7.47833 46.8985C7.6554 47.5163 7.6131 47.9209 7.49942 48.0352C6.75113 48.7794 6.32911 49.7904 6.32621 50.8458C6.3233 51.9011 6.73976 52.9144 7.48396 53.6627C8.22815 54.411 9.23913 54.833 10.2945 54.8359C11.3498 54.8388 12.3631 54.4224 13.1114 53.6782C13.4726 53.4688 15.1248 53.5826 16.4092 54.2893C16.9788 54.6028 17.2377 54.9204 17.2377 55.0828C17.2347 56.1381 17.651 57.1514 18.3951 57.8998C19.1392 58.6482 20.1501 59.0703 21.2054 59.0733C22.2607 59.0763 23.274 58.66 24.0224 57.9159C24.7707 57.1719 25.1929 56.161 25.1959 55.1056C25.3062 54.6989 26.561 53.607 27.9709 53.2013C28.5886 53.0232 28.9928 53.0654 29.1076 53.1799C29.8518 53.9282 30.8628 54.3501 31.9181 54.353C32.9734 54.3559 33.9867 53.9394 34.7349 53.1952C35.4832 52.451 35.9051 51.44 35.908 50.3847C35.9109 49.3294 35.4944 48.3162 34.7502 47.5679C34.5404 47.207 34.6541 45.5542 35.3606 44.2704C35.6748 43.7007 35.9923 43.4415 36.1541 43.4415C37.2095 43.4446 38.2228 43.0284 38.9713 42.2843C39.7197 41.5402 40.1419 40.5294 40.1451 39.474C40.1482 38.4186 39.7319 37.4053 38.9879 36.6568C38.2438 35.9084 37.2329 35.4862 36.1776 35.4831ZM20.8754 29.9583C22.8227 29.9582 24.7262 30.5356 26.3453 31.6174C27.9644 32.6992 29.2264 34.2368 29.9716 36.0358C30.7168 37.8348 30.9118 39.8144 30.5319 41.7242C30.1521 43.6341 29.2144 45.3884 27.8375 46.7653C26.4606 48.1422 24.7063 49.0799 22.7965 49.4598C20.8867 49.8398 18.9071 49.6448 17.1081 48.8996C15.309 48.1545 13.7714 46.8925 12.6895 45.2735C11.6077 43.6544 11.0303 41.7509 11.0303 39.8036C11.0333 37.1935 12.0715 34.691 13.9172 32.8453C15.7628 30.9996 18.2652 29.9613 20.8754 29.9583ZM20.8754 47.7738C19.2991 47.7737 17.7582 47.3061 16.4475 46.4303C15.1369 45.5544 14.1154 44.3096 13.5123 42.8532C12.9091 41.3968 12.7514 39.7943 13.059 38.2482C13.3666 36.7022 14.1257 35.282 15.2404 34.1674C16.3551 33.0528 17.7753 32.2938 19.3214 31.9863C20.8675 31.6789 22.47 31.8368 23.9263 32.44C25.3827 33.0433 26.6274 34.0649 27.5032 35.3756C28.3789 36.6863 28.8463 38.2273 28.8463 39.8036C28.8439 41.9168 28.0033 43.9428 26.509 45.437C25.0147 46.9312 22.9886 47.7716 20.8754 47.7738ZM50.983 20.0268C50.9827 20.585 50.8184 21.1307 50.5106 21.5963C50.2027 22.0619 49.7649 22.4268 49.2515 22.6456C48.738 22.8645 48.1716 22.9277 47.6226 22.8274C47.0735 22.7271 46.566 22.4678 46.1631 22.0815C45.7447 22.0023 44.5144 22.657 44.2565 23.0893C44.2305 23.8307 43.9164 24.5328 43.3809 25.0462C42.8454 25.5596 42.1307 25.8438 41.3889 25.8385C40.647 25.8331 39.9365 25.5386 39.4085 25.0176C38.8804 24.4965 38.5764 23.79 38.5611 23.0483C38.3209 22.6967 36.9873 22.2873 36.501 22.4122C35.9584 22.9183 35.2397 23.1928 34.4979 23.1772C33.756 23.1617 33.0495 22.8574 32.5285 22.329C32.0075 21.8007 31.7132 21.0899 31.7081 20.3479C31.7031 19.6059 31.9877 18.8912 32.5014 18.3558C32.5799 17.939 31.9261 16.707 31.4936 16.4501C30.7521 16.4241 30.0499 16.11 29.5365 15.5744C29.023 15.0388 28.7387 14.324 28.7441 13.5821C28.7494 12.8402 29.044 12.1296 29.5651 11.6014C30.0862 11.0733 30.7928 10.7693 31.5346 10.754C31.885 10.5137 32.2952 9.18068 32.1709 8.69411C31.6647 8.15159 31.3902 7.433 31.4057 6.69119C31.4212 5.94937 31.7255 5.24286 32.2538 4.72193C32.7822 4.20099 33.4929 3.90674 34.2349 3.90175C34.9768 3.89676 35.6915 4.18143 36.2268 4.69521C36.6451 4.7749 37.8756 4.11982 38.1322 3.6874C38.1578 2.95608 38.4638 2.26263 38.9867 1.75074C39.5096 1.23885 40.2094 0.947754 40.9411 0.937766C41.6728 0.927778 42.3803 1.19966 42.917 1.69709C43.4537 2.19452 43.7785 2.87935 43.824 3.6097C44.2445 4.00348 44.7596 4.282 45.3193 4.41829C45.638 4.48861 45.7929 4.44654 45.8197 4.43001C46.351 3.90052 47.0697 3.6019 47.8197 3.59893C48.5698 3.59597 49.2908 3.8889 49.8262 4.41417C50.3617 4.93944 50.6684 5.65467 50.6799 6.40466C50.6913 7.15465 50.4065 7.8789 49.8873 8.42025C49.8088 8.83697 50.4628 10.0691 50.8963 10.3258C51.6382 10.3512 52.3409 10.6652 52.8548 11.2008C53.3687 11.7365 53.6533 12.4516 53.6479 13.1939C53.6426 13.9362 53.3478 14.6471 52.8262 15.1753C52.3046 15.7035 51.5975 16.0073 50.8553 16.022C50.5037 16.2622 50.0936 17.5951 50.219 18.0817C50.7124 18.6086 50.9857 19.3042 50.983 20.0261V20.0268ZM41.1945 6.85286C39.9018 6.853 38.6382 7.23645 37.5635 7.9547C36.4888 8.67296 35.6512 9.69378 35.1566 10.8881C34.662 12.0824 34.5327 13.3965 34.7849 14.6643C35.0372 15.9321 35.6597 17.0966 36.5738 18.0106C37.4879 18.9246 38.6525 19.547 39.9203 19.7991C41.1882 20.0513 42.5023 19.9218 43.6965 19.4271C44.8908 18.9324 45.9115 18.0946 46.6296 17.0198C47.3478 15.945 47.7311 14.6814 47.7311 13.3888C47.7291 11.6558 47.0398 9.99441 45.8143 8.76909C44.5889 7.54378 42.9274 6.85463 41.1945 6.85286ZM41.1945 18.0494C42.1163 18.0494 43.0174 17.7761 43.7839 17.264C44.5504 16.7519 45.1478 16.024 45.5006 15.1723C45.8533 14.3207 45.9456 13.3835 45.7658 12.4794C45.586 11.5753 45.1421 10.7448 44.4903 10.093C43.8384 9.44115 43.0079 8.99725 42.1038 8.81741C41.1997 8.63758 40.2626 8.72989 39.4109 9.08267C38.5593 9.43544 37.8314 10.0328 37.3192 10.7993C36.8071 11.5658 36.5338 12.4669 36.5338 13.3888C36.5354 14.6244 37.0269 15.8089 37.9006 16.6826C38.7743 17.5563 39.9589 18.0478 41.1945 18.0494ZM1.7631 24.4722C1.58543 24.2983 1.48414 24.0609 1.4815 23.8123C1.47886 23.5637 1.5751 23.3242 1.74903 23.1465C7.24993 17.5272 13.81 14.6472 21.2807 14.5572C20.8989 14.2563 20.5942 14.0165 20.3666 13.8378C20.1583 13.6738 20.0152 13.5611 19.9376 13.5C19.7426 13.3456 19.6168 13.1202 19.588 12.8731C19.5738 12.7508 19.5838 12.6269 19.6174 12.5084C19.6511 12.39 19.7077 12.2793 19.7841 12.1827C19.8605 12.0862 19.9552 12.0056 20.0628 11.9456C20.1703 11.8856 20.2887 11.8474 20.411 11.8332C20.658 11.8044 20.9064 11.8749 21.1014 12.0293C21.1776 12.0894 21.3193 12.2011 21.5268 12.3643C22.0951 12.8113 23.1483 13.642 24.6861 14.8567C24.8017 14.9477 24.8941 15.0647 24.956 15.1982C25.0179 15.3316 25.0475 15.4778 25.0424 15.6248C25.0372 15.7718 24.9975 15.9156 24.9265 16.0444C24.8554 16.1732 24.755 16.2835 24.6334 16.3663C23.3339 17.2538 22.3423 18.0041 21.7494 18.4522C21.4705 18.6626 21.2865 18.8018 21.1635 18.8858C21.0619 18.9568 20.9472 19.0069 20.826 19.0333C20.7049 19.0597 20.5798 19.0617 20.4578 19.0394C20.3359 19.0171 20.2196 18.9708 20.1156 18.9032C20.0117 18.8357 19.9222 18.7482 19.8523 18.6458C19.7824 18.5434 19.7335 18.4282 19.7085 18.3068C19.6834 18.1854 19.6827 18.0602 19.7063 17.9385C19.7299 17.8168 19.7775 17.701 19.8462 17.5978C19.9149 17.4946 20.0033 17.4061 20.1065 17.3373C20.1922 17.2787 20.3806 17.1362 20.6186 16.9562C20.8097 16.8112 21.0451 16.6339 21.3147 16.4324C14.3469 16.5192 8.22587 19.2097 3.08849 24.4576C2.91456 24.6352 2.67724 24.7364 2.4287 24.739C2.18017 24.7416 1.94075 24.6455 1.7631 24.4717V24.4722ZM55.8019 43.0414C55.7893 42.9189 55.7527 42.8001 55.6941 42.6917C55.6356 42.5834 55.5563 42.4876 55.4607 42.4099C55.3651 42.3322 55.2552 42.2741 55.1372 42.2389C55.0192 42.2037 54.8954 42.1922 54.7729 42.2048C54.6614 42.2165 54.473 42.2416 54.1881 42.2801C53.8938 42.3197 53.498 42.373 53.0057 42.4354C58.06 37.3126 59.6515 31.1895 57.7283 24.1963C57.6624 23.9565 57.504 23.7527 57.2878 23.6297C57.0717 23.5068 56.8155 23.4748 56.5757 23.5407C56.336 23.6066 56.1322 23.765 56.0092 23.9812C55.8863 24.1973 55.8542 24.4535 55.9201 24.6933C57.6697 31.0565 56.2894 36.4425 51.7049 41.0886C51.7647 40.7632 51.8152 40.4767 51.8559 40.2413C51.911 39.9293 51.9546 39.6826 51.9779 39.5699C52.0275 39.3262 51.9782 39.0728 51.8409 38.8655C51.7037 38.6582 51.4897 38.5139 51.246 38.4643C51.0023 38.4148 50.749 38.4641 50.5416 38.6013C50.3343 38.7386 50.19 38.9526 50.1404 39.1963C50.1123 39.3329 50.0713 39.5645 50.0104 39.9153C49.8756 40.6783 49.6494 41.9552 49.3342 43.5071C49.3049 43.6513 49.3099 43.8003 49.3489 43.9421C49.3878 44.0839 49.4596 44.2146 49.5584 44.3235C49.6572 44.4325 49.7802 44.5167 49.9176 44.5693C50.0549 44.6219 50.2027 44.6415 50.349 44.6264C52.3084 44.4255 53.6936 44.2385 54.4389 44.1383C54.6861 44.1048 54.882 44.0783 54.965 44.07C55.2123 44.0444 55.4394 43.9217 55.5963 43.7288C55.7532 43.536 55.8271 43.2887 55.8019 43.0414Z" fill="#39BCA9"/>
</svg>
