<svg width="81" height="74" viewBox="0 0 81 74" fill="none" xmlns="http://www.w3.org/2000/svg">
<circle cx="45" cy="42" r="30" fill="#F4F4F4"/>
<g clip-path="url(#clip0_255_28521)">
<path d="M55.5312 47.8521C56.6197 46.5346 57.2744 44.8462 57.2744 43.0078C57.2744 38.8077 53.8573 35.3906 49.6572 35.3906C46.8718 35.3906 44.432 36.8944 43.1036 39.1318L36.0583 36.9438C35.9737 34.7412 34.5325 32.8813 32.5479 32.1773V24.6094H40.165C41.1358 24.6094 41.9229 23.8223 41.9229 22.8516V20.5078C41.9229 16.9168 39.7571 13.8238 36.6641 12.4615C37.7525 11.1439 38.4072 9.45562 38.4072 7.61719C38.4072 3.41707 34.9902 0 30.79 0C26.5899 0 23.1729 3.41707 23.1729 7.61719C23.1729 9.45562 23.8276 11.1439 24.916 12.4615C21.823 13.8238 19.6572 16.9168 19.6572 20.5078V22.8516C19.6572 23.8223 20.4443 24.6094 21.415 24.6094H29.0322V32.1773C27.0475 32.8813 25.6064 34.7412 25.5218 36.9438L18.4764 39.1318C17.1481 36.8944 14.7083 35.3906 11.9229 35.3906C7.72273 35.3906 4.30566 38.8077 4.30566 43.0078C4.30566 44.8462 4.96039 46.5346 6.04883 47.8521C2.95578 49.2144 0.790039 52.3075 0.790039 55.8984V58.2422C0.790039 59.213 1.57707 60 2.54785 60H21.2979C22.2686 60 23.0557 59.213 23.0557 58.2422V55.8984C23.0557 52.3075 20.8899 49.2144 17.7969 47.8521C18.8853 46.5346 19.54 44.8462 19.54 43.0078C19.54 42.8332 19.532 42.6606 19.5204 42.489L26.5652 40.3011C27.5278 41.5876 29.0633 42.4219 30.79 42.4219C32.5168 42.4219 34.0523 41.5876 35.0149 40.3011L42.0597 42.489C42.0481 42.6606 42.04 42.8332 42.04 43.0078C42.04 44.8462 42.6948 46.5346 43.7832 47.8521C40.6902 49.2144 38.5244 52.3075 38.5244 55.8984V58.2422C38.5244 59.213 39.3114 60 40.2822 60H59.0322C60.003 60 60.79 59.213 60.79 58.2422V55.8984C60.79 52.3075 58.6243 49.2144 55.5312 47.8521ZM30.79 3.51562C33.0516 3.51562 34.8916 5.35559 34.8916 7.61719C34.8916 9.87879 33.0516 11.7188 30.79 11.7188C28.5284 11.7188 26.6885 9.87879 26.6885 7.61719C26.6885 5.35559 28.5284 3.51562 30.79 3.51562ZM23.1729 20.5078C23.1729 17.6 25.5385 15.2344 28.4463 15.2344H33.1338C36.0416 15.2344 38.4072 17.6 38.4072 20.5078V21.0938H23.1729V20.5078ZM11.9229 38.9062C14.1845 38.9062 16.0244 40.7462 16.0244 43.0078C16.0244 45.2694 14.1845 47.1094 11.9229 47.1094C9.66125 47.1094 7.82129 45.2694 7.82129 43.0078C7.82129 40.7462 9.66125 38.9062 11.9229 38.9062ZM19.54 55.8984V56.4844H4.30566V55.8984C4.30566 52.9907 6.67133 50.625 9.5791 50.625H14.2666C17.1744 50.625 19.54 52.9907 19.54 55.8984ZM30.79 38.9062C29.8208 38.9062 29.0322 38.1177 29.0322 37.1484C29.0322 36.1792 29.8208 35.3906 30.79 35.3906C31.7593 35.3906 32.5479 36.1792 32.5479 37.1484C32.5479 38.1177 31.7593 38.9062 30.79 38.9062ZM49.6572 38.9062C51.9188 38.9062 53.7588 40.7462 53.7588 43.0078C53.7588 45.2694 51.9188 47.1094 49.6572 47.1094C47.3956 47.1094 45.5557 45.2694 45.5557 43.0078C45.5557 40.7462 47.3956 38.9062 49.6572 38.9062ZM57.2744 56.4844H42.04V55.8984C42.04 52.9907 44.4057 50.625 47.3135 50.625H52.001C54.9087 50.625 57.2744 52.9907 57.2744 55.8984V56.4844Z" fill="#39BCA9"/>
</g>
<defs>
<clipPath id="clip0_255_28521">
<rect width="60" height="60" fill="white" transform="translate(0.790039)"/>
</clipPath>
</defs>
</svg>
