<svg width="40" height="40" viewBox="0 0 40 40" fill="none" xmlns="http://www.w3.org/2000/svg">
<rect width="40" height="40" rx="20" fill="#39BCA9"/>
<g clip-path="url(#clip0_1103_7481)">
<path d="M26.2816 21.2785C26.4844 21.2621 26.6406 21.0927 26.6406 20.8892V20.3906H27.7232C27.8844 20.8453 28.3189 21.1719 28.8281 21.1719C29.4743 21.1719 30 20.6462 30 20C30 19.3538 29.4743 18.8281 28.8281 18.8281C28.3189 18.8281 27.8844 19.1547 27.7232 19.6094H26.6406V19.1108C26.6406 18.9073 26.4844 18.7379 26.2816 18.7215L25.569 18.6635C25.4292 18.0772 25.1992 17.5223 24.8825 17.0076L25.3459 16.4623C25.4776 16.3072 25.4683 16.077 25.3244 15.9331L24.9719 15.5806L26.4118 14.1407H27.7232C27.8844 14.5954 28.3189 14.9219 28.8281 14.9219C29.4743 14.9219 30 14.3962 30 13.7501C30 13.1039 29.4743 12.5782 28.8281 12.5782C28.3189 12.5782 27.8844 12.9048 27.7232 13.3594H26.2499C26.1463 13.3594 26.047 13.4006 25.9737 13.4739L24.4194 15.0282L24.0668 14.6756C23.9229 14.5317 23.6927 14.5224 23.5377 14.6541L22.9923 15.1175C22.4777 14.8009 21.9229 14.5709 21.3365 14.4311L21.2785 13.7183C21.2621 13.5156 21.0927 13.3594 20.8892 13.3594H20.3906V12.2768C20.8453 12.1156 21.1718 11.6811 21.1718 11.1719C21.1718 10.5257 20.6461 10 20 10C19.3538 10 18.8281 10.5257 18.8281 11.1719C18.8281 11.6811 19.1547 12.1156 19.6093 12.2768V13.3594H19.1107C18.9073 13.3594 18.7379 13.5155 18.7214 13.7183L18.6635 14.4311C18.0774 14.5709 17.5225 14.8009 17.0078 15.1176L16.4623 14.6541C16.3073 14.5224 16.077 14.5317 15.9331 14.6756L15.5806 15.0281L14.0263 13.4738C13.953 13.4006 13.8537 13.3594 13.7501 13.3594H12.2768C12.1156 12.9047 11.6812 12.5782 11.1719 12.5782C10.5257 12.5782 10 13.1039 10 13.75C10 14.3962 10.5257 14.9219 11.1719 14.9219C11.6811 14.9219 12.1155 14.5954 12.2768 14.1406H13.5883L15.0282 15.5806L14.6756 15.9331C14.5318 16.077 14.5224 16.3072 14.6542 16.4622L15.1176 17.0076C14.8009 17.5222 14.5708 18.0771 14.431 18.6634L13.7184 18.7214C13.5156 18.7379 13.3594 18.9073 13.3594 19.1107V19.6093H12.2768C12.1156 19.1547 11.6812 18.8281 11.1719 18.8281C10.5257 18.8281 10 19.3538 10 20C10 20.6461 10.5257 21.1718 11.1719 21.1718C11.6811 21.1718 12.1155 20.8453 12.2768 20.3906H13.3594V20.8891C13.3594 21.0926 13.5156 21.262 13.7184 21.2785L14.4312 21.3364C14.571 21.9226 14.801 22.4774 15.1176 22.9921L14.6542 23.5376C14.5224 23.6926 14.5317 23.9228 14.6756 24.0667L15.0282 24.4193L13.5883 25.8592H12.2768C12.1156 25.4045 11.6812 25.078 11.1719 25.078C10.5257 25.078 10 25.6037 10 26.2499C10 26.896 10.5257 27.4217 11.1719 27.4217C11.6811 27.4217 12.1156 27.0952 12.2768 26.6405H13.7501C13.8537 26.6405 13.953 26.5993 14.0263 26.5261L15.5806 24.9717L15.9332 25.3242C16.0771 25.4681 16.3073 25.4774 16.4623 25.3457L17.0077 24.8823C17.5223 25.199 18.0771 25.4291 18.6635 25.5689L18.7215 26.2815C18.7379 26.4842 18.9073 26.6404 19.1108 26.6404H19.6094V27.723C19.1547 27.8842 18.8281 28.3187 18.8281 28.8279C18.8281 29.4741 19.3538 29.9998 20 29.9998C20.6462 29.9998 21.1719 29.4741 21.1719 28.8279C21.1719 28.3187 20.8453 27.8842 20.3906 27.723V26.6406H20.8892C21.0927 26.6406 21.2621 26.4844 21.2785 26.2816L21.3365 25.5688C21.9226 25.429 22.4774 25.199 22.9922 24.8823L23.5376 25.3458C23.6927 25.4776 23.9229 25.4682 24.0668 25.3243L24.4193 24.9718L25.9737 26.5261C26.0469 26.5994 26.1463 26.6406 26.2499 26.6406H27.7231C27.8843 27.0952 28.3188 27.4218 28.8281 27.4218C29.4742 27.4218 29.9999 26.8961 29.9999 26.2499C29.9999 25.6038 29.4742 25.0781 28.8281 25.0781C28.3188 25.0781 27.8843 25.4046 27.7231 25.8593H26.4117L24.9717 24.4194L25.3243 24.0668C25.4682 23.9229 25.4775 23.6927 25.3458 23.5376L24.8824 22.9923C25.1991 22.4776 25.4292 21.9228 25.569 21.3364L26.2816 21.2785ZM28.8281 19.6094C29.0435 19.6094 29.2188 19.7846 29.2188 20C29.2188 20.2154 29.0435 20.3906 28.8281 20.3906C28.6127 20.3906 28.4375 20.2154 28.4375 20C28.4375 19.7846 28.6127 19.6094 28.8281 19.6094ZM28.8281 13.3594C29.0435 13.3594 29.2188 13.5346 29.2188 13.75C29.2188 13.9654 29.0435 14.1406 28.8281 14.1406C28.6127 14.1406 28.4375 13.9654 28.4375 13.75C28.4375 13.5346 28.6127 13.3594 28.8281 13.3594ZM20 10.7812C20.2154 10.7812 20.3906 10.9565 20.3906 11.1719C20.3906 11.3873 20.2154 11.5625 20 11.5625C19.7846 11.5625 19.6093 11.3873 19.6093 11.1719C19.6093 10.9565 19.7846 10.7812 20 10.7812ZM11.1719 14.1406C10.9565 14.1406 10.7812 13.9654 10.7812 13.75C10.7812 13.5346 10.9565 13.3594 11.1719 13.3594C11.3873 13.3594 11.5625 13.5346 11.5625 13.75C11.5625 13.9654 11.3873 14.1406 11.1719 14.1406ZM11.1719 20.3906C10.9565 20.3906 10.7812 20.2154 10.7812 20C10.7812 19.7846 10.9565 19.6094 11.1719 19.6094C11.3873 19.6094 11.5625 19.7846 11.5625 20C11.5625 20.2154 11.3873 20.3906 11.1719 20.3906ZM11.1719 26.6406C10.9565 26.6406 10.7812 26.4654 10.7812 26.25C10.7812 26.0346 10.9565 25.8594 11.1719 25.8594C11.3873 25.8594 11.5625 26.0346 11.5625 26.25C11.5625 26.4654 11.3873 26.6406 11.1719 26.6406ZM20 29.2188C19.7846 29.2188 19.6094 29.0435 19.6094 28.8281C19.6094 28.6127 19.7846 28.4375 20 28.4375C20.2154 28.4375 20.3906 28.6127 20.3906 28.8281C20.3906 29.0435 20.2154 29.2188 20 29.2188ZM28.8281 25.8593C29.0435 25.8593 29.2188 26.0345 29.2188 26.2499C29.2188 26.4653 29.0435 26.6406 28.8281 26.6406C28.6127 26.6406 28.4375 26.4653 28.4375 26.2499C28.4375 26.0345 28.6127 25.8593 28.8281 25.8593ZM24.863 20.9001C24.7368 21.5857 24.4716 22.2255 24.0746 22.8016C23.9743 22.947 23.9842 23.1416 24.0985 23.2762L24.5173 23.769L23.7691 24.5172L23.2761 24.0984C23.1416 23.984 22.947 23.9742 22.8016 24.0744C22.2252 24.4715 21.5855 24.7367 20.9002 24.8627C20.7264 24.8947 20.5958 25.0392 20.5814 25.2153L20.5291 25.8593H19.4709L19.4186 25.2154C19.4043 25.0394 19.2736 24.8949 19.0999 24.863C18.4142 24.7368 17.7745 24.4716 17.1984 24.0746C17.053 23.9743 16.8584 23.9842 16.7239 24.0985L16.231 24.5173L15.4828 23.7691L15.9016 23.2761C16.0159 23.1416 16.0258 22.947 15.9256 22.8016C15.5285 22.2253 15.2633 21.5856 15.1372 20.9002C15.1053 20.7264 14.9608 20.5958 14.7847 20.5814L14.1406 20.529V19.4709L14.7845 19.4186C14.9605 19.4043 15.1051 19.2736 15.137 19.0999C15.2631 18.4141 15.5284 17.7744 15.9254 17.1984C16.0256 17.0529 16.0158 16.8584 15.9015 16.7238L15.4827 16.2309L16.2309 15.4827L16.7238 15.9015C16.8584 16.0158 17.0529 16.0257 17.1984 15.9255C17.7747 15.5285 18.4145 15.2632 19.0998 15.1372C19.2735 15.1053 19.4042 14.9607 19.4185 14.7847L19.4709 14.1406H20.529L20.5813 14.7847C20.5957 14.9608 20.7263 15.1053 20.9 15.1372C21.5857 15.2633 22.2255 15.5285 22.8016 15.9254C22.9469 16.0256 23.1416 16.0158 23.2761 15.9014L23.769 15.4827L24.5172 16.2309L24.0985 16.7237C23.9841 16.8583 23.9743 17.0529 24.0745 17.1983C24.4715 17.7744 24.7367 18.4142 24.8628 19.0998C24.8947 19.2735 25.0393 19.4042 25.2153 19.4185L25.8592 19.4709V20.529L25.2154 20.5813C25.0394 20.5957 24.8949 20.7264 24.863 20.9001Z" fill="white"/>
<path d="M20 16.4844C18.0615 16.4844 16.4844 18.0615 16.4844 20C16.4844 21.9385 18.0615 23.5156 20 23.5156C21.9385 23.5156 23.5156 21.9385 23.5156 20C23.5156 18.0615 21.9385 16.4844 20 16.4844ZM20 22.7344C18.4923 22.7344 17.2656 21.5077 17.2656 20C17.2656 18.4923 18.4923 17.2656 20 17.2656C21.5077 17.2656 22.7344 18.4923 22.7344 20C22.7344 21.5077 21.5077 22.7344 20 22.7344Z" fill="white"/>
<path d="M20.5525 20L21.1551 19.3973C21.3077 19.2448 21.3077 18.9975 21.1551 18.8449C21.0026 18.6923 20.7553 18.6923 20.6027 18.8449L20 19.4475L19.3974 18.8449C19.2448 18.6923 18.9975 18.6923 18.8449 18.8449C18.6923 18.9974 18.6924 19.2448 18.8449 19.3973L19.4476 20L18.8449 20.6027C18.6923 20.7552 18.6923 21.0026 18.8449 21.1552C18.9212 21.2314 19.0211 21.2696 19.1211 21.2696C19.221 21.2696 19.321 21.2314 19.3973 21.1552L20 20.5525L20.6027 21.1552C20.679 21.2314 20.7789 21.2696 20.8789 21.2696C20.9788 21.2696 21.0788 21.2314 21.1551 21.1552C21.3076 21.0026 21.3076 20.7553 21.1551 20.6027L20.5525 20Z" fill="white"/>
</g>
<defs>
<clipPath id="clip0_1103_7481">
<rect width="20" height="20" fill="white" transform="translate(10 10)"/>
</clipPath>
</defs>
</svg>
