<svg width="61" height="60" viewBox="0 0 61 60" fill="none" xmlns="http://www.w3.org/2000/svg">
<g clip-path="url(#clip0_255_26955)">
<path d="M53.3901 30.0088C53.1221 31.3546 51.9286 32.3349 50.4976 32.3958C50.047 32.4141 49.6634 32.7429 49.5781 33.1874C49.4867 33.6319 49.7121 34.0825 50.12 34.2713C51.4171 34.8802 52.1417 36.2442 51.8677 37.59L51.6119 38.8687C51.277 40.5555 49.4136 41.6089 47.7817 41.207C47.325 41.0974 46.8562 41.0122 46.3934 40.9208C45.7114 40.7869 45.0294 40.6468 44.3474 40.5128C43.4461 40.3302 42.5449 40.1536 41.6437 39.971C40.572 39.7578 39.4942 39.5386 38.4225 39.3254C37.2229 39.0819 36.0233 38.8444 34.8237 38.6009C33.5449 38.3451 32.2601 38.0894 30.9813 37.8275C29.666 37.5657 28.3507 37.2977 27.0415 37.0359C25.7384 36.7741 24.4414 36.5122 23.1382 36.2504C21.8961 36.0007 20.6538 35.7511 19.4116 35.5014C18.2729 35.2761 17.1403 35.0447 16.0016 34.8194C15.0152 34.6245 14.0287 34.4236 13.0483 34.2287C12.2628 34.0704 11.4773 33.9122 10.6857 33.7538C10.1437 33.6442 9.6017 33.5346 9.05981 33.425C8.81009 33.3762 8.56049 33.3215 8.31082 33.2728C8.29865 33.2728 8.28647 33.2666 8.27423 33.2666C8.40819 33.8999 8.3473 34.5758 8.05501 35.2091C7.43993 36.5366 6.00894 37.2308 4.63282 36.9628C4.22483 36.8837 3.78032 37.0359 3.60373 37.4134L3.05569 38.6009C2.87916 38.9783 3.05569 39.4168 3.37848 39.6786C3.43937 39.7274 47.3311 59.9621 47.4041 59.9804C47.8121 60.0595 48.2566 59.9073 48.4332 59.5297L48.9813 58.3423C49.1579 57.9649 48.9813 57.5264 48.6585 57.2646C47.5625 56.3938 47.1605 54.8532 47.7756 53.5257C48.3906 52.1983 49.8216 51.5041 51.1978 51.772C51.6057 51.8512 52.0503 51.699 52.2268 51.3214L52.7749 50.134C52.9514 49.7565 52.7749 49.3181 52.4521 49.0562C51.356 48.1854 50.9542 46.6448 51.5692 45.3174C52.1842 43.99 53.6152 43.2958 54.9914 43.5637C55.3993 43.6429 55.8439 43.4906 56.0205 43.1131L56.5685 41.9257C56.745 41.5481 56.5685 41.1097 56.2457 40.8479C55.1496 39.9771 54.7477 38.4365 55.3628 37.109C55.9778 35.7816 57.4088 35.0875 58.7849 35.3553C59.1929 35.4345 59.6374 35.2823 59.814 34.9048L60.4168 33.5894C60.5934 33.2119 60.429 32.7674 60.0515 32.5908L53.4933 29.5645L53.3901 30.0088Z" fill="#39BCA9"/>
<path d="M1.08876 29.588C1.16184 29.6245 48.5428 39.1299 48.6219 39.1299C49.0361 39.1116 49.4379 38.8559 49.5171 38.454L49.7728 37.1752C49.852 36.7672 49.584 36.3775 49.2065 36.2009C47.9399 35.6042 47.1909 34.2036 47.4771 32.7666C47.7633 31.3295 48.9995 30.3247 50.4 30.2639C50.8141 30.2456 51.216 29.9898 51.2951 29.5879L51.4839 28.6502L51.551 28.3031C51.6301 27.8951 51.3621 27.5054 50.9846 27.3288C49.718 26.7321 48.969 25.3315 49.2553 23.8945C49.5415 22.4574 50.7776 21.4526 52.1782 21.3917C52.5922 21.3735 52.9941 21.1177 53.0733 20.7158L53.329 19.4371C53.4082 19.0291 53.1402 18.6394 52.7627 18.4628C51.4961 17.866 50.7471 16.4655 51.0334 15.0284C51.3196 13.5913 52.5557 12.5866 53.9562 12.5257C54.3703 12.5074 54.7721 12.2517 54.8514 11.8498L55.1375 10.431C55.2167 10.023 54.9548 9.62719 54.5469 9.54803C54.5469 9.54803 6.93456 0 6.88585 0C6.53267 0 6.22212 0.249662 6.14904 0.602841L5.86285 2.02165C5.78369 2.42963 6.05161 2.81935 6.42915 2.99594C7.69573 3.59269 8.44471 4.99323 8.15852 6.43031C7.87232 7.86738 6.63619 8.87212 5.23565 8.93301C4.82151 8.95128 4.41968 9.20703 4.34052 9.60892L4.08477 10.8877C4.00561 11.2957 4.27354 11.6854 4.65107 11.862C5.91765 12.4587 6.6667 13.8593 6.38044 15.2963C6.09424 16.7334 4.85811 17.7381 3.45757 17.799C3.04349 17.8173 2.6416 18.0731 2.56244 18.475L2.30669 19.7537C2.22753 20.1617 2.49552 20.5514 2.87299 20.728C4.13963 21.3247 4.88862 22.7253 4.60236 24.1624C4.31616 25.5995 3.08003 26.6042 1.67949 26.6651C1.26542 26.6834 0.863521 26.9391 0.78436 27.341L0.528609 28.6198C0.443298 29.0278 0.711166 29.4114 1.08876 29.588ZM41.674 13.9811C41.8384 13.1591 42.6422 12.6232 43.4643 12.7876C44.2863 12.952 44.8222 13.7558 44.6578 14.5779L42.6483 24.5765L41.4122 30.7389C41.266 31.4635 40.6328 31.9629 39.9203 31.9629C39.8228 31.9629 39.7194 31.9507 39.6219 31.9324C38.7999 31.768 38.264 30.9642 38.4284 30.1422L39.8107 23.2674L41.674 13.9811ZM14.2234 8.47029C14.3878 7.64823 15.1916 7.11237 16.0137 7.27678C16.8357 7.44119 17.3716 8.24498 17.2072 9.06704L16.513 12.5197L15.7275 16.4351L15.0942 19.5894L13.9677 25.2281C13.8216 25.9527 13.1883 26.4521 12.4758 26.4521C12.3784 26.4521 12.2749 26.4399 12.1775 26.4216C12.1349 26.4155 12.0923 26.4033 12.0557 26.3912C11.3007 26.1719 10.8317 25.4107 10.9901 24.6314L11.2154 23.4927L11.806 20.5454L14.2234 8.47029Z" fill="#39BCA9"/>
</g>
<defs>
<clipPath id="clip0_255_26955">
<rect width="60" height="60" fill="white" transform="translate(0.5)"/>
</clipPath>
</defs>
</svg>
