<svg width="60" height="61" viewBox="0 0 60 61" fill="none" xmlns="http://www.w3.org/2000/svg">
<g clip-path="url(#clip0_447_12318)">
<path d="M40.9531 54.9009V58.7104C40.9531 59.4913 40.3055 60.1389 39.5246 60.1389H20.4774C19.6965 60.1389 19.0488 59.4913 19.0488 58.7104V54.9009C19.0488 50.7105 21.4106 47.0535 24.8964 45.2439C22.5155 43.6059 20.9536 40.863 20.9536 37.7584C20.9536 32.7681 25.0108 28.7109 30.0011 28.7109C34.9914 28.7109 39.0485 32.7681 39.0485 37.7584C39.0485 40.863 37.4866 43.6059 35.1058 45.2439C38.5914 47.0535 40.9531 50.7105 40.9531 54.9009Z" fill="#39BCA9"/>
<path d="M52.3806 51.0904V54.8998C52.3806 55.6808 51.733 56.3284 50.952 56.3284H43.8092V54.8998C43.8092 51.0523 42.2282 47.4523 39.5235 44.9001C41.0473 42.862 41.9044 40.3669 41.9044 37.7573C41.9044 33.148 39.2758 29.1478 35.4473 27.1671C37.0663 25.7385 39.1806 24.9004 41.4281 24.9004C46.4185 24.9004 50.4756 28.9575 50.4756 33.9478C50.4756 37.0335 48.9137 39.7763 46.5518 41.4143C47.5041 41.9095 48.3803 42.5571 49.1803 43.338C51.2374 45.4333 52.3806 48.1761 52.3806 51.0904Z" fill="#39BCA9"/>
<path d="M7.61914 51.0904V54.8998C7.61914 55.6808 8.26677 56.3284 9.0477 56.3284H16.1905V54.8998C16.1905 51.0523 17.7715 47.4523 20.4762 44.9001C18.9524 42.862 18.0953 40.3669 18.0953 37.7573C18.0953 33.148 20.7239 29.1478 24.5525 27.1671C22.9334 25.7385 20.8191 24.9004 18.5716 24.9004C13.5813 24.9004 9.52414 28.9575 9.52414 33.9478C9.52414 37.0335 11.086 39.7763 13.448 41.4143C12.4956 41.9095 11.6195 42.5571 10.8194 43.338C8.76233 45.4333 7.61914 48.1761 7.61914 51.0904Z" fill="#39BCA9"/>
<path d="M29.5563 18.6268L24.6444 21.209C23.9457 21.5763 23.1292 20.9831 23.2625 20.2052L24.2005 14.7356C24.2536 14.4266 24.151 14.1114 23.9266 13.8926L19.9527 10.019C19.3874 9.46797 19.6994 8.50816 20.4805 8.39453L25.9722 7.59653C26.2824 7.55153 26.5507 7.35672 26.6892 7.07547L29.1451 2.09922C29.4944 1.39141 30.5037 1.39141 30.8532 2.09922L33.3091 7.07547C33.4479 7.35653 33.716 7.55134 34.0261 7.59653L39.5178 8.39453C40.2989 8.50797 40.6109 9.46797 40.0456 10.019L36.0717 13.8926C35.8473 14.1114 35.7449 14.4266 35.7978 14.7356L36.7359 20.2052C36.8694 20.9831 36.0528 21.5763 35.354 21.209L30.442 18.6268C30.1645 18.4809 29.8338 18.4809 29.5563 18.6268Z" fill="#39BCA9"/>
<path d="M50.9528 11.3474H47.1434C46.3548 11.3474 45.7148 10.7074 45.7148 9.9188C45.7148 9.13017 46.3548 8.49023 47.1434 8.49023H50.9528C51.7415 8.49023 52.3814 9.13017 52.3814 9.9188C52.3814 10.7074 51.7415 11.3474 50.9528 11.3474Z" fill="#39BCA9"/>
<path d="M45.6023 4.66734C45.0722 4.66734 44.5643 4.37259 44.317 3.86465C43.971 3.1559 44.2648 2.30034 44.9736 1.9544L48.3981 0.283965C49.1087 -0.0629095 49.9624 0.232778 50.3083 0.942465C50.6543 1.65122 50.3605 2.50678 49.6517 2.85272L46.2272 4.52315C46.0245 4.62084 45.8125 4.66734 45.6023 4.66734Z" fill="#39BCA9"/>
<path d="M49.023 19.6919C48.8128 19.6919 48.6008 19.6454 48.3981 19.5477L44.9736 17.8782C44.2648 17.5323 43.971 16.6765 44.317 15.968C44.6629 15.2594 45.5168 14.9664 46.2272 15.3095L49.6517 16.979C50.3605 17.3249 50.6543 18.1807 50.3083 18.8892C50.061 19.397 49.5531 19.6919 49.023 19.6919Z" fill="#39BCA9"/>
<path d="M12.8571 11.3474H9.0477C8.25908 11.3474 7.61914 10.7074 7.61914 9.9188C7.61914 9.13017 8.25908 8.49023 9.0477 8.49023H12.8571C13.6458 8.49023 14.2857 9.13017 14.2857 9.9188C14.2857 10.7074 13.6458 11.3474 12.8571 11.3474Z" fill="#39BCA9"/>
<path d="M14.398 4.66746C14.1878 4.66746 13.9758 4.62096 13.7731 4.52327L10.3486 2.85284C9.63984 2.5069 9.34603 1.65115 9.69196 0.942586C10.0379 0.234023 10.888 -0.0590391 11.6022 0.284086L15.0267 1.95452C15.7355 2.30046 16.0293 3.15621 15.6833 3.86477C15.436 4.37252 14.9281 4.66746 14.398 4.66746Z" fill="#39BCA9"/>
<path d="M10.9773 19.6915C10.4472 19.6915 9.93928 19.3967 9.69196 18.8888C9.34603 18.18 9.63984 17.3245 10.3486 16.9785L13.7731 15.309C14.491 14.9622 15.3393 15.2597 15.6833 15.9675C16.0293 16.6763 15.7355 17.5318 15.0267 17.8778L11.6022 19.5473C11.3995 19.645 11.1856 19.6915 10.9773 19.6915Z" fill="#39BCA9"/>
</g>
<defs>
<clipPath id="clip0_447_12318">
<rect width="60" height="60" fill="#39BCA9" transform="translate(0 0.138672)"/>
</clipPath>
</defs>
</svg>
