<svg width="60" height="60" viewBox="0 0 60 60" fill="none" xmlns="http://www.w3.org/2000/svg">
<path fill-rule="evenodd" clip-rule="evenodd" d="M21.3715 42.9621C23.6871 44.7199 26.291 46.3336 28.875 47.8547L26.4035 52.1332L22.3441 51.5121C21.5273 52.1531 20.6133 52.6852 19.6371 53.0801L18.1453 56.9004H12.8039L11.3121 53.0766C10.3324 52.684 9.42187 52.1531 8.60508 51.5121L4.54219 52.1332L1.875 47.509L4.43906 44.3039C4.36992 43.7918 4.32891 43.2703 4.32891 42.7395C4.32891 42.2086 4.36875 41.6859 4.43906 41.175L1.875 37.9723L4.54219 33.3445L8.60508 33.9656C9.42187 33.3246 10.3324 32.7926 11.3121 32.4012L12.8039 28.5773H15.4746C15.4746 29.1258 15.4816 29.6766 15.4875 30.2285C15.5203 32.3109 15.6035 34.8164 16.2949 36.8918C16.0254 36.8555 15.7535 36.8355 15.4746 36.8355C12.2121 36.8355 9.57187 39.4793 9.57187 42.7383C9.57187 45.9973 12.2133 48.641 15.4746 48.641C18.7359 48.641 21.2543 46.1191 21.3715 42.9609V42.9621ZM55.6664 17.2641C55.6664 16.732 55.6301 16.2105 55.5562 15.6996L58.1238 12.4945L55.4531 7.87031L51.3902 8.48789C50.5734 7.84688 49.6629 7.31836 48.6832 6.92344L47.1914 3.09961H41.8535L40.3617 6.92344C39.382 7.31836 38.4715 7.84687 37.6547 8.49141L33.5918 7.87031L30.9211 12.4945L32.1035 13.9699C34.425 14.1129 36.7371 14.5078 39.0059 15.1559C39.8566 12.9363 42.0059 11.359 44.523 11.359C47.782 11.359 50.4258 14.0027 50.4258 17.2652C50.4258 20.5277 47.8418 23.1047 44.632 23.1645C44.6789 25.5258 44.7117 27.8812 44.6754 30.2297C44.6684 30.6152 44.6625 31.0172 44.6484 31.425H47.1926L48.6809 27.6012C49.6605 27.2063 50.5711 26.6777 51.3914 26.0367L55.4508 26.6543L58.1215 22.0301L55.5539 18.825C55.6266 18.3129 55.6641 17.7914 55.6641 17.2641H55.6664ZM42.784 18.3902C42.8508 22.3266 42.9797 26.2629 42.9199 30.2027C42.8871 32.325 42.8098 35.1387 41.9098 37.0852C41.1387 38.7527 39.5883 40.1215 38.1633 41.2312C35.6391 43.2012 32.8547 44.9051 30.0844 46.5258C27.3105 44.9051 24.5273 43.2012 22.002 41.2312C20.577 40.1215 19.0254 38.7527 18.2543 37.0852C17.3543 35.1387 17.2781 32.325 17.2441 30.2027C17.1844 26.2629 17.3168 22.3266 17.3836 18.3902C25.5422 14.7527 34.6207 14.7527 42.7828 18.3902H42.784ZM38.0273 22.6184C37.4555 22.0465 36.5297 22.0465 35.9543 22.6184L27.1477 31.4273L24.2109 28.4906C23.6391 27.9164 22.7133 27.9164 22.1379 28.4906C21.566 29.0625 21.566 29.9883 22.1379 30.5602L26.1105 34.5328C26.6824 35.1047 27.6117 35.1047 28.1836 34.5328L38.0262 24.6902C38.598 24.1184 38.598 23.1891 38.0262 22.6172L38.0273 22.6184Z" fill="#39BCA9"/>
</svg>
