<svg width="60" height="60" viewBox="0 0 60 60" fill="none" xmlns="http://www.w3.org/2000/svg">
<path d="M14.2463 24.7416C13.0803 25.0903 12.0578 25.8056 11.3306 26.7814C10.6034 27.7572 10.2101 28.9414 10.2092 30.1584V31.6477L0.290679 23.0679C0.207148 22.9958 0.138668 22.9078 0.0891607 22.8092C0.0396532 22.7106 0.0100906 22.6031 0.00216598 22.493C-0.00575866 22.3829 0.00811028 22.2724 0.0429786 22.1677C0.0778469 22.0629 0.13303 21.9661 0.205367 21.8828L17.139 2.29852C17.2111 2.21499 17.299 2.14651 17.3977 2.097C17.4963 2.04749 17.6038 2.01792 17.7139 2.00998C17.8239 2.00205 17.9345 2.0159 18.0393 2.05076C18.144 2.08561 18.2408 2.14077 18.3242 2.21309L22.9933 6.2502L11.0699 11.6842C10.4612 11.9641 9.98797 12.4737 9.7538 13.1015C9.51963 13.7293 9.54352 14.4243 9.82025 15.0346L14.2463 24.7416ZM11.3568 14.3346L15.9951 24.5065H22.4913C22.759 24.5072 23.0262 24.5289 23.2905 24.5713V11.0079C23.2906 10.3366 23.5574 9.69287 24.032 9.2182C24.5067 8.74353 25.1505 8.4768 25.8217 8.47664H38.9882L36.44 2.89618C36.3943 2.79567 36.3293 2.70515 36.2486 2.6298C36.1679 2.55445 36.0731 2.49575 35.9697 2.45706C35.8663 2.41837 35.7563 2.40044 35.646 2.4043C35.5356 2.40817 35.4271 2.43374 35.3267 2.47957L11.7701 13.2211C11.6698 13.267 11.5795 13.3322 11.5044 13.413C11.4293 13.4938 11.3708 13.5887 11.3325 13.6921C11.2941 13.7955 11.2764 13.9055 11.2806 14.0158C11.2848 14.126 11.3107 14.2344 11.3568 14.3346ZM46.4917 16.8928H52.0624L45.8258 10.6595V16.2267C45.827 16.403 45.8975 16.5717 46.0221 16.6964C46.1468 16.821 46.3155 16.8916 46.4917 16.8928ZM44.1419 10.1643V16.2267C44.1414 16.5356 44.2018 16.8415 44.3197 17.1271C44.4376 17.4126 44.6106 17.672 44.8289 17.8906C45.0471 18.1091 45.3063 18.2825 45.5917 18.4008C45.877 18.5191 46.1829 18.58 46.4917 18.58H52.5542V30.0184C51.2751 30.1941 50.0575 30.6769 49.0055 31.4256H31.8735C31.844 31.4129 31.8155 31.398 31.7881 31.3812C31.5098 31.1797 31.2513 30.9521 31.0163 30.7015L30.2499 29.9535H47.5744C47.7982 29.9535 48.0128 29.8646 48.1711 29.7064C48.3293 29.5481 48.4182 29.3335 48.4182 29.1097C48.4182 28.886 48.3293 28.6713 48.1711 28.5131C48.0128 28.3549 47.7982 28.266 47.5744 28.266H29.9575C29.7745 28.2665 29.5967 28.3263 29.4506 28.4364C29.3045 28.5466 29.198 28.7012 29.1473 28.877L26.887 26.6713C26.3965 26.1664 25.8525 25.7163 25.2646 25.329C25.169 25.2704 25.0734 25.2163 24.9777 25.1617V11.0079C24.9782 10.7843 25.0672 10.5699 25.2254 10.4118C25.3835 10.2536 25.5979 10.1646 25.8215 10.1641L44.1419 10.1643ZM29.1139 16.8006C29.1139 17.0244 29.2028 17.239 29.361 17.3972C29.5192 17.5554 29.7339 17.6443 29.9576 17.6443H41.1159C41.3396 17.6443 41.5543 17.5554 41.7125 17.3972C41.8707 17.239 41.9596 17.0244 41.9596 16.8006C41.9596 16.5768 41.8707 16.3622 41.7125 16.204C41.5543 16.0457 41.3396 15.9568 41.1159 15.9568H29.9575C29.7339 15.9573 29.5196 16.0464 29.3614 16.2045C29.2033 16.3626 29.1143 16.577 29.1139 16.8006ZM48.4181 25.0079C48.4181 24.7842 48.3292 24.5695 48.1709 24.4113C48.0127 24.2531 47.7981 24.1642 47.5743 24.1642H29.9575C29.7337 24.1642 29.5191 24.2531 29.3609 24.4113C29.2027 24.5695 29.1138 24.7842 29.1138 25.0079C29.1138 25.2317 29.2027 25.4463 29.3609 25.6046C29.5191 25.7628 29.7337 25.8517 29.9575 25.8517H47.5744C47.7982 25.8517 48.0128 25.7627 48.171 25.6045C48.3292 25.4463 48.4181 25.2317 48.4181 25.0079ZM29.9575 20.0626C29.7337 20.0626 29.5191 20.1515 29.3609 20.3098C29.2027 20.468 29.1138 20.6826 29.1138 20.9064C29.1138 21.1301 29.2027 21.3448 29.3609 21.503C29.5191 21.6612 29.7337 21.7501 29.9575 21.7501H47.5744C47.7982 21.7501 48.0128 21.6612 48.1711 21.503C48.3293 21.3448 48.4182 21.1301 48.4182 20.9064C48.4182 20.6826 48.3293 20.468 48.1711 20.3098C48.0128 20.1515 47.7982 20.0626 47.5744 20.0626H29.9575ZM59.9999 37.9765C59.9993 39.444 59.4899 40.8659 58.5585 42C57.6271 43.134 56.3314 43.9101 54.892 44.1959C53.4526 44.4818 51.9586 44.2597 50.6645 43.5676C49.3705 42.8755 48.3564 41.7561 47.7951 40.4002C47.2338 39.0443 47.16 37.5357 47.5862 36.1314C48.0124 34.7272 48.9123 33.5141 50.1326 32.6989C51.3528 31.8838 52.818 31.5169 54.2784 31.6608C55.7389 31.8047 57.1042 32.4505 58.1419 33.4882C58.7319 34.0771 59.1998 34.7768 59.5187 35.547C59.8375 36.3172 60.0011 37.1429 59.9999 37.9765ZM57.9507 34.7898C57.8727 34.7111 57.7798 34.6486 57.6775 34.6059C57.5752 34.5633 57.4655 34.5413 57.3547 34.5413C57.2438 34.5413 57.1341 34.5633 57.0318 34.6059C56.9295 34.6486 56.8367 34.7111 56.7586 34.7898L52.1683 39.3768L50.5527 37.7579C50.3942 37.5999 50.1794 37.5112 49.9556 37.5115C49.7317 37.5118 49.5172 37.6011 49.3591 37.7596C49.201 37.9181 49.1124 38.1329 49.1127 38.3567C49.113 38.5806 49.2022 38.7952 49.3607 38.9532L51.5742 41.1664C51.7325 41.324 51.9468 41.4124 52.1701 41.4124C52.3935 41.4124 52.6077 41.324 52.7661 41.1664L57.9508 35.9818C58.1083 35.8234 58.1967 35.6092 58.1966 35.3858C58.1966 35.1624 58.1082 34.9482 57.9507 34.7898ZM53.654 46.0097C54.5828 46.0102 55.5048 45.8508 56.3795 45.5384V53.3529C56.3758 54.5824 55.8855 55.7604 55.0158 56.6296C54.1461 57.4987 52.9677 57.9882 51.7382 57.9911H16.5381C15.3086 57.9882 14.1301 57.4988 13.2603 56.6297C12.3906 55.7606 11.9002 54.5825 11.8965 53.3529V30.1584C11.8979 29.1078 12.3157 28.1005 13.0583 27.3573C13.8009 26.6141 14.8078 26.1954 15.8585 26.1931H22.4913C23.158 26.1963 23.8095 26.3933 24.3663 26.7601C24.8536 27.0817 25.3037 27.4562 25.7085 27.8769L29.8379 31.9106C30.1583 32.2448 30.5117 32.5457 30.8926 32.8089C31.1851 33.0038 31.5281 33.1095 31.8796 33.1129H47.2636C46.3572 34.3036 45.8014 35.7238 45.659 37.2135C45.5166 38.7032 45.7932 40.203 46.4576 41.5439C47.122 42.8848 48.1478 44.0134 49.4193 44.8024C50.6908 45.5915 52.1575 46.0096 53.654 46.0097ZM17.2556 46.1189C17.2556 46.3427 17.3445 46.5573 17.5027 46.7155C17.6609 46.8738 17.8755 46.9627 18.0993 46.9627H26.3238C26.5475 46.9627 26.7622 46.8738 26.9204 46.7155C27.0786 46.5573 27.1675 46.3427 27.1675 46.1189C27.1675 45.8951 27.0786 45.6805 26.9204 45.5223C26.7622 45.3641 26.5475 45.2752 26.3238 45.2752H18.099C17.9881 45.2748 17.8782 45.2964 17.7757 45.3387C17.6732 45.381 17.58 45.4431 17.5016 45.5215C17.4232 45.6 17.3611 45.6931 17.3188 45.7956C17.2765 45.8981 17.255 46.008 17.2553 46.1189H17.2556ZM51.0209 51.8845C51.0209 51.6608 50.932 51.4461 50.7738 51.2879C50.6156 51.1297 50.4009 51.0408 50.1772 51.0408H18.099C17.8757 51.0408 17.6615 51.1295 17.5037 51.2874C17.3458 51.4452 17.2571 51.6594 17.2571 51.8827C17.2571 52.1059 17.3458 52.3201 17.5037 52.478C17.6615 52.6358 17.8757 52.7245 18.099 52.7245H50.177C50.4003 52.7248 50.6146 52.6365 50.7727 52.4789C50.9309 52.3213 51.0201 52.1074 51.0207 51.8842L51.0209 51.8845Z" fill="#39BCA9"/>
</svg>
