<svg width="60" height="60" viewBox="0 0 60 60" fill="none" xmlns="http://www.w3.org/2000/svg">
<g clip-path="url(#clip0_255_27052)">
<path d="M14.4824 33.0738L14.4825 33.0742C14.5197 33.0367 14.5172 33.039 14.4824 33.0738Z" fill="#39BCA9"/>
<path d="M58.6697 24.7806L55.6862 24.0632C55.0374 21.2311 53.92 18.5398 52.3581 16.0374L53.8702 13.4989C54.2822 12.8072 54.1706 11.9249 53.6024 11.3568L48.6472 6.40152C48.079 5.83516 47.1986 5.72184 46.5051 6.13375L43.9666 7.64582C41.4642 6.08395 38.7728 4.96656 35.9408 4.31781L35.2233 1.33422C35.0276 0.553281 34.3257 0.00390625 33.519 0.00390625H26.4887C25.6819 0.00390625 24.98 0.553164 24.7843 1.33422L24.0669 4.31781C21.2348 4.96656 18.5435 6.08395 16.041 7.64582L13.5025 6.13375C12.8109 5.72172 11.9286 5.8334 11.3604 6.40152L6.40494 11.3567C5.83682 11.9248 5.72525 12.807 6.13717 13.4987L7.64924 16.0373C6.08736 18.5397 4.96998 21.231 4.32123 24.0631L1.33764 24.7805C0.556699 24.9762 0.00732422 25.6782 0.00732422 26.4849V33.5152C0.00732422 34.3219 0.556582 35.0256 1.33928 35.2196L4.32287 35.937C4.75541 37.8136 5.40639 39.6166 6.2424 41.3458C7.53322 40.0497 14.0163 33.5389 14.4822 33.0735C14.4592 32.9552 14.2081 30.7039 14.2014 30.2654C14.0519 21.3091 21.2658 14.1834 30.0105 14.1834C38.815 14.1834 45.8358 21.2828 45.8027 30.0549C45.7649 38.1674 39.71 45.0737 31.2533 45.7054C30.8874 45.7335 29.2334 45.9775 26.928 45.523L18.679 53.772C20.4017 54.603 22.1978 55.2497 24.0667 55.6806L24.7842 58.666C24.9799 59.4469 25.6818 59.9963 26.4885 59.9963H33.5188C34.3256 59.9963 35.0275 59.447 35.2232 58.666L35.9406 55.6824C38.7727 55.0336 41.464 53.9162 43.9665 52.3544L46.505 53.8664C47.1932 54.2785 48.0772 54.1652 48.647 53.5987L53.6023 48.6434C54.1704 48.0753 54.282 47.1931 53.8701 46.5013L52.358 43.9628C53.9217 41.4604 55.0373 38.7691 55.686 35.9352L58.6679 35.2196C59.4506 35.0256 59.9998 34.3219 59.9998 33.5152V26.4849C59.9998 25.6783 59.4507 24.9762 58.6697 24.7806Z" fill="#39BCA9"/>
<path d="M41.8967 26.7864C41.7424 26.1813 41.2752 25.7052 40.6727 25.5402C40.0705 25.375 39.427 25.5472 38.9853 25.9887L34.9746 29.9997C33.6036 31.3707 31.3749 31.3707 30.0038 29.9997C28.6341 28.63 28.6341 26.3988 30.0038 25.0289L34.0163 21.0164C34.4579 20.5749 34.6284 19.9304 34.4633 19.3284C34.298 18.7264 33.8226 18.2584 33.2176 18.1047C25.8013 16.22 19.1272 21.0508 17.9032 27.7219C17.5101 29.919 17.6852 32.1073 18.4043 34.1223C17.4042 35.1225 1.95723 50.5693 1.54204 50.9847C-0.51941 53.0461 -0.51941 56.3999 1.57461 58.4939C3.64907 60.4604 6.82614 60.5431 9.0186 58.4614L25.8809 41.599C28.5813 42.5628 31.5929 42.5432 34.54 41.5033C39.8504 39.6295 43.567 33.3408 41.8967 26.7864Z" fill="#39BCA9"/>
</g>
<defs>
<clipPath id="clip0_255_27052">
<rect width="60" height="60" fill="white"/>
</clipPath>
</defs>
</svg>
