<svg width="60" height="61" viewBox="0 0 60 61" fill="none" xmlns="http://www.w3.org/2000/svg">
<g clip-path="url(#clip0_447_12299)">
<path d="M60 44.6367V46.5117C60 47.0117 59.8 47.4867 59.45 47.8367L46.95 60.3367C46.6 60.6867 46.125 60.8867 45.625 60.8867H43.75V46.5117C43.75 45.4867 44.6 44.6367 45.625 44.6367H60Z" fill="#39BCA9"/>
<path d="M53.125 13.3867H34.375V19.0117C34.375 21.4242 32.4125 23.3867 30 23.3867C27.5875 23.3867 25.625 21.4242 25.625 19.0117V13.3867H6.875C3.075 13.3867 0 16.4617 0 20.2617V54.0117C0 57.8117 3.075 60.8867 6.875 60.8867H41.25V46.5117C41.25 44.0992 43.2125 42.1367 45.625 42.1367H60V20.2617C60 16.4617 56.925 13.3867 53.125 13.3867ZM35 49.6367H11.875C10.84 49.6367 10 48.7967 10 47.7617C10 46.7267 10.84 45.8867 11.875 45.8867H35C36.035 45.8867 36.875 46.7267 36.875 47.7617C36.875 48.7967 36.035 49.6367 35 49.6367ZM48.125 39.6367H11.875C10.84 39.6367 10 38.7967 10 37.7617C10 36.7267 10.84 35.8867 11.875 35.8867H48.125C49.16 35.8867 50 36.7267 50 37.7617C50 38.7967 49.16 39.6367 48.125 39.6367ZM48.125 29.6367H11.875C10.84 29.6367 10 28.7967 10 27.7617C10 26.7267 10.84 25.8867 11.875 25.8867H48.125C49.16 25.8867 50 26.7267 50 27.7617C50 28.7967 49.16 29.6367 48.125 29.6367Z" fill="#39BCA9"/>
<path d="M30 20.8867C28.965 20.8867 28.125 20.0467 28.125 19.0117V9.63672C28.125 8.60172 28.965 7.76172 30 7.76172C31.035 7.76172 31.875 8.60172 31.875 9.63672V19.0117C31.875 20.0467 31.035 20.8867 30 20.8867Z" fill="#39BCA9"/>
<path d="M30 10.8867C27.2425 10.8867 25 8.64422 25 5.88672C25 3.12922 27.2425 0.886719 30 0.886719C32.7575 0.886719 35 3.12922 35 5.88672C35 8.64422 32.7575 10.8867 30 10.8867Z" fill="#39BCA9"/>
</g>
<defs>
<clipPath id="clip0_447_12299">
<rect width="60" height="60" fill="white" transform="translate(0 0.886719)"/>
</clipPath>
</defs>
</svg>
