<svg width="61" height="60" viewBox="0 0 61 60" fill="none" xmlns="http://www.w3.org/2000/svg">
<path d="M46.3438 45.0048H46.3503C47.4906 45.0034 48.5836 44.5491 49.3891 43.7421C50.1946 42.935 50.6467 41.8411 50.646 40.7008C50.6452 39.5605 50.1917 38.4672 49.3852 37.6612C48.5786 36.8551 47.485 36.4023 46.3447 36.4023C45.2044 36.4023 44.1108 36.8551 43.3043 37.6612C42.4977 38.4672 42.0442 39.5605 42.0435 40.7008C42.0427 41.8411 42.4948 42.935 43.3003 43.7421C44.1058 44.5491 45.1988 45.0034 46.3391 45.0048H46.3438Z" fill="#39BCA9"/>
<path d="M52.2837 11.1463C52.2833 10.5491 52.0462 9.97656 51.6245 9.55381C51.2028 9.13107 50.6308 8.89261 50.0337 8.89062H6.50469C5.90677 8.89137 5.33358 9.12928 4.91087 9.55216C4.48817 9.97504 4.2505 10.5483 4.25 11.1463V15.3519H52.2837V11.1463ZM8.19688 12.4306C8.01916 12.6049 7.78017 12.7026 7.53125 12.7026C7.28233 12.7026 7.04334 12.6049 6.86562 12.4306C6.69294 12.2519 6.5956 12.0135 6.59375 11.765C6.59535 11.7052 6.60162 11.6457 6.6125 11.5869C6.62119 11.5248 6.6402 11.4646 6.66875 11.4087C6.6874 11.3511 6.71595 11.2972 6.75313 11.2494C6.78594 11.1989 6.82362 11.1518 6.86562 11.1088C6.99799 10.9796 7.16485 10.8914 7.34613 10.8548C7.52741 10.8182 7.7154 10.8348 7.8875 10.9025C8.00571 10.9454 8.11184 11.0161 8.19688 11.1088C8.24158 11.1494 8.27955 11.1968 8.30937 11.2494C8.34655 11.2972 8.3751 11.3511 8.39375 11.4087C8.4223 11.4646 8.44131 11.5248 8.45 11.5869C8.46088 11.6457 8.46715 11.7052 8.46875 11.765C8.46876 12.0139 8.37115 12.2529 8.19688 12.4306ZM13.3531 12.4306C13.2673 12.518 13.1655 12.5881 13.0531 12.6369C12.8809 12.7039 12.6931 12.7201 12.512 12.6835C12.3308 12.6469 12.164 12.5592 12.0312 12.4306C11.9432 12.3439 11.8737 12.2402 11.827 12.1257C11.7802 12.0113 11.7572 11.8886 11.7594 11.765C11.7563 11.705 11.7626 11.6449 11.7781 11.5869C11.7882 11.5262 11.8039 11.4665 11.825 11.4087C11.8506 11.3525 11.8821 11.2991 11.9188 11.2494C11.9455 11.1948 11.9839 11.1468 12.0312 11.1088C12.1634 10.9793 12.3303 10.8909 12.5116 10.8543C12.693 10.8177 12.8811 10.8344 13.0531 10.9025C13.1673 10.9479 13.2698 11.0184 13.3531 11.1088C13.4008 11.149 13.4419 11.1964 13.475 11.2494C13.5086 11.2994 13.5369 11.3528 13.5594 11.4087C13.5837 11.4662 13.6025 11.5259 13.6156 11.5869C13.6265 11.6457 13.6328 11.7052 13.6344 11.765C13.6348 11.8892 13.6101 12.0122 13.5618 12.1266C13.5135 12.241 13.4425 12.3444 13.3531 12.4306ZM18.725 12.1306C18.6762 12.243 18.6061 12.3448 18.5187 12.4306C18.4333 12.5178 18.3311 12.5868 18.2184 12.6335C18.1056 12.6802 17.9846 12.7037 17.8625 12.7025C17.7375 12.7044 17.6134 12.6821 17.4969 12.6369C17.3845 12.5881 17.2827 12.518 17.1969 12.4306C17.1065 12.3473 17.036 12.2448 16.9906 12.1306C16.9454 12.0141 16.9231 11.89 16.925 11.765C16.9238 11.6429 16.9473 11.5219 16.994 11.4091C17.0407 11.2964 17.1097 11.1942 17.1969 11.1088C17.2802 11.0184 17.3827 10.9479 17.4969 10.9025C17.7284 10.8088 17.9872 10.8088 18.2188 10.9025C18.3329 10.9479 18.4355 11.0184 18.5187 11.1088C18.5665 11.149 18.6076 11.1964 18.6406 11.2494C18.6688 11.2962 18.6969 11.3525 18.725 11.4087C18.7531 11.465 18.7625 11.5212 18.7812 11.5869C18.7921 11.6457 18.7984 11.7052 18.8 11.765C18.7986 11.8906 18.7732 12.0147 18.725 12.1306Z" fill="#39BCA9"/>
<path d="M38.8324 30.999C39.0443 30.8349 39.2646 30.683 39.4886 30.5302C39.5299 30.5021 39.5693 30.4702 39.6114 30.443C39.9537 30.2185 40.3073 30.0117 40.6708 29.8234L40.7149 29.8018C41.0702 29.6143 41.4358 29.4549 41.808 29.3068L41.8614 29.2852C43.0252 28.8268 44.2522 28.5489 45.4999 28.4612H45.5083C45.7896 28.4424 46.0633 28.4265 46.3427 28.4265C46.4702 28.4265 46.5958 28.4265 46.7177 28.4349H46.7824H46.9418V21.5762H30.0049V30.999H38.8324Z" fill="#39BCA9"/>
<path d="M6.50469 47.235H35.9487C35.7612 46.9341 35.5831 46.6247 35.42 46.3088C35.4013 46.2712 35.3863 46.2328 35.3666 46.1944C35.1838 45.8278 35.0196 45.4523 34.8744 45.0694C34.8331 44.9616 34.7928 44.8538 34.7553 44.745C34.6906 44.5575 34.6297 44.37 34.5734 44.1825H29.0675C28.8189 44.1825 28.5804 44.0837 28.4046 43.9079C28.2288 43.7321 28.13 43.4936 28.13 43.245V36.1087C28.13 35.8601 28.2288 35.6217 28.4046 35.4458C28.5804 35.27 28.8189 35.1712 29.0675 35.1712H35.4069C35.8208 34.3506 36.3262 33.5795 36.9134 32.8725H29.0675C28.8189 32.8725 28.5804 32.7737 28.4046 32.5979C28.2288 32.4221 28.13 32.1836 28.13 31.935V20.6372C28.13 20.3885 28.2288 20.1501 28.4046 19.9743C28.5804 19.7985 28.8189 19.6997 29.0675 19.6997H47.8859C48.1346 19.6997 48.373 19.7985 48.5489 19.9743C48.7247 20.1501 48.8234 20.3885 48.8234 20.6372V28.6866C49.0184 28.7269 49.2116 28.77 49.4028 28.8197C49.5303 28.8516 49.6559 28.8891 49.7778 28.9256C50.1409 29.0312 50.4975 29.1538 50.8475 29.2931C50.9412 29.3316 51.0444 29.3644 51.1409 29.4056C51.5301 29.5694 51.9104 29.7537 52.28 29.9578V17.2266H4.25V44.9766C4.24975 45.575 4.4871 46.149 4.90988 46.5725C5.33266 46.996 5.90629 47.2343 6.50469 47.235ZM7.70844 20.6344C7.70844 20.3857 7.80721 20.1473 7.98303 19.9715C8.15884 19.7956 8.3973 19.6969 8.64594 19.6969H23.2391C23.4877 19.6969 23.7262 19.7956 23.902 19.9715C24.0778 20.1473 24.1766 20.3857 24.1766 20.6344V43.2413C24.1766 43.4899 24.0778 43.7283 23.902 43.9042C23.7262 44.08 23.4877 44.1788 23.2391 44.1788H8.64594C8.3973 44.1788 8.15884 44.08 7.98303 43.9042C7.80721 43.7283 7.70844 43.4899 7.70844 43.2413V20.6344Z" fill="#39BCA9"/>
<path d="M40.8989 49.5544C42.5347 50.5705 44.4222 51.1086 46.3479 51.1077C48.2736 51.1069 50.1606 50.5672 51.7955 49.5497C51.6176 49.3196 51.426 49.1005 51.2217 48.8934C50.5833 48.2525 49.8244 47.7441 48.9887 47.3977C48.153 47.0513 47.257 46.8736 46.3524 46.875H46.3346C45.2845 46.8794 44.2493 47.123 43.3075 47.5872C42.3656 48.0515 41.5419 48.7242 40.8989 49.5544Z" fill="#39BCA9"/>
<path d="M52.6541 32.4381C51.2319 31.3377 49.5445 30.6321 47.7622 30.3925C45.6541 30.1271 43.5147 30.4946 41.616 31.4481C41.5757 31.4687 41.5344 31.4884 41.4951 31.51C41.2391 31.6431 40.9916 31.7912 40.7451 31.9459C40.6879 31.9825 40.6288 32.0153 40.5726 32.0528C40.2913 32.2403 40.0157 32.4409 39.7532 32.6566C38.4906 33.6843 37.4892 34.9963 36.831 36.4853C36.3972 37.4559 36.1182 38.4884 36.0041 39.5453C35.9615 39.9292 35.9396 40.315 35.9385 40.7012C35.9361 42.1607 36.2429 43.6042 36.8385 44.9366C37.4341 46.269 38.3051 47.4602 39.3941 48.4319C40.2921 47.2712 41.4662 46.3537 42.8094 45.7628C41.7307 45.0118 40.9197 43.9364 40.4942 42.6928C40.0687 41.4492 40.051 40.1023 40.4436 38.8479C40.8362 37.5936 41.6187 36.4971 42.6773 35.7181C43.7359 34.939 45.0154 34.5179 46.3298 34.516C47.6441 34.514 48.9248 34.9314 49.9857 35.7074C51.0465 36.4834 51.8322 37.5775 52.2285 38.8307C52.6248 40.084 52.611 41.4309 52.1891 42.6757C51.7673 43.9206 50.9594 44.9984 49.8829 45.7525C50.8745 46.1888 51.7766 46.8051 52.5435 47.5703C52.8113 47.8378 53.0618 48.1221 53.2935 48.4216C54.4328 47.4024 55.3327 46.1439 55.9287 44.7363C56.5247 43.3286 56.8021 41.8066 56.741 40.2791C56.6799 38.7517 56.2818 37.2567 55.5753 35.9012C54.8687 34.5456 53.8712 33.363 52.6541 32.4381Z" fill="#39BCA9"/>
<path d="M9.5835 21.5723H22.3016V42.3041H9.5835V21.5723Z" fill="#39BCA9"/>
<path d="M34.1636 39.2238C34.1983 38.9284 34.2452 38.635 34.3014 38.3444C34.3193 38.2506 34.3343 38.1569 34.3549 38.0631C34.4299 37.7209 34.5161 37.3806 34.6211 37.0469H30.0049V42.3053H34.1693C34.1646 42.2734 34.1693 42.2406 34.1627 42.2116C34.1011 41.712 34.0698 41.2092 34.0689 40.7059C34.0689 40.3169 34.0933 39.9325 34.128 39.55C34.1364 39.4403 34.1505 39.3325 34.1636 39.2238Z" fill="#39BCA9"/>
</svg>
