<svg width="60" height="60" viewBox="0 0 60 60" fill="none" xmlns="http://www.w3.org/2000/svg">
<path d="M25.4416 7.40603C22.7346 7.40603 20.5432 9.59743 20.5432 12.3162C20.5432 15.0232 22.7346 17.2146 25.4416 17.2146C28.1487 17.2146 30.3518 15.0232 30.3518 12.3162C30.3401 9.59743 28.1487 7.40603 25.4416 7.40603ZM21.4455 21.6326L5.62522 21.6443C5.4846 21.6795 5.4846 21.8201 5.51975 21.949L7.9221 31.6052C8.00413 31.9334 8.37913 32.2498 8.70726 32.2498L24.5276 32.2381C24.6682 32.2029 24.6682 32.0623 24.6448 31.9334L22.2424 22.2771C22.1487 21.949 21.7737 21.6326 21.4455 21.6326ZM34.0198 32.2381H50.1799V29.0037H34.0198V32.2381ZM48.2463 24.3513H32.0744V27.5857H48.2346V24.3513H48.2463ZM48.9494 22.9451H51.3869V19.7107H35.2268V22.9451H48.9494ZM52.9455 15.0584H36.7854V18.2927H52.9455V15.0584ZM56.0393 33.6443C39.2815 33.6443 22.5354 33.6443 5.77757 33.6443V36.6677H56.0393V33.6443ZM26.0393 32.2381H32.6135V29.0037H31.3713C30.9846 29.0037 30.6682 28.6873 30.6682 28.3006V23.6482C30.6682 23.2615 30.9846 22.9451 31.3713 22.9451H33.8205V20.2029C32.4377 18.8318 30.5862 18.0466 28.6057 18.0466H28.0549C27.258 18.4099 26.3791 18.6092 25.4416 18.6092C24.5041 18.6092 23.6252 18.4099 22.8284 18.0466H22.2659C20.2385 18.0466 18.3869 18.8787 17.0393 20.2146H21.4455C22.4182 20.2146 23.3674 20.9763 23.6018 21.9256L26.0041 31.5818C26.051 31.8162 26.0627 32.0271 26.0393 32.2381ZM7.9221 54.6326H53.9065V38.074H7.9221V54.6326ZM8.12132 8.84743C7.87522 8.54274 7.93382 8.10915 8.22679 7.86306C8.53147 7.61696 8.96507 7.66384 9.21116 7.96852L11.426 10.7107C11.6721 11.0154 11.6252 11.449 11.3205 11.6951C11.0158 11.9412 10.5823 11.8943 10.3362 11.5896L8.12132 8.84743ZM13.9455 5.09743C13.8401 4.72243 14.051 4.33571 14.426 4.23024C14.801 4.12477 15.1877 4.33571 15.2932 4.71071L16.4416 8.60134C16.5471 8.97634 16.3362 9.36306 15.9612 9.46853C15.5862 9.57399 15.1994 9.36306 15.094 8.98806L13.9455 5.09743ZM8.28538 14.6482C8.6721 14.6834 8.95335 15.0349 8.90647 15.4217C8.87132 15.8084 8.51976 16.0896 8.13304 16.0427L3.93772 15.5857C3.551 15.5506 3.26976 15.199 3.31663 14.8123C3.36351 14.4256 3.70335 14.1443 4.09007 14.1912L8.28538 14.6482Z" fill="#39BCA9"/>
</svg>
